<svg xmlns="http://www.w3.org/2000/svg" width="2058" height="1474" style="width: 2058px; height: 1474px;"><defs id="defs_197"/><path opacity="1" stroke-width="1" stroke-opacity="1" fill-opacity="1" d="M 0,0 l 2058,0 l 0,1474 l-2058 0 z" fill="#fff" stroke="none"/><g opacity="1" transform="matrix(1,0,0,1,15,43)"><g opacity="1" class="activity__keyword"><circle opacity="1" stroke-width="1" stroke-opacity="1" fill-opacity="1" cx="915.9210624694824" cy="10" r="10" fill="#3b4044" stroke="none"/></g><g opacity="1"><path opacity="1" stroke-width="1" stroke-opacity="1" fill-opacity="1" d="M 741.7105369567871,50 l 348.4210510253906,0 l 0,30 l-348.4210510253906 0 z" fill="#fdb05e" stroke="#3b4044"/><text dominant-baseline="central" text-anchor="middle" opacity="1" stroke-width="1" stroke-opacity="1" fill-opacity="1" x="915.9210624694824" y="65" font-size="14" font-family="Source Code Pro, sans-serif" font-style="normal" font-weight="normal" font-variant="normal" width="328.42" height="10" fill="#3b4044" paint-order="stroke" style="stroke-linecap:butt; stroke-linejoin:miter;" stroke="none">Utilisateur se rend sur le site BrokerX</text></g><g opacity="1"><path opacity="1" stroke-width="1" stroke-opacity="1" fill-opacity="1" fill="#fdb05e" stroke="#3b4044" d="m 0 15l 12 15l 156 0l 12 -15l -12 -15l -156 0Z" class="activity__decision-bg" transform="matrix(1,0,0,1,825.9210815429688,110)"/><text dominant-baseline="central" text-anchor="middle" opacity="1" stroke-width="1" stroke-opacity="1" fill-opacity="1" x="915.9210624694824" y="125" font-size="14" font-family="Source Code Pro, sans-serif" font-style="normal" font-weight="normal" font-variant="normal" width="160" height="10" fill="#3b4044" paint-order="stroke" style="stroke-linecap:butt; stroke-linejoin:miter;" stroke="none">session existante ?</text></g><path opacity="1" stroke-width="1" stroke-opacity="1" fill-opacity="1" width="20" height="20" d="m 1470.1315937042236 811.5l 10 10l 10 -10l -10 -10Z" fill="#fdb05e" stroke="#3b4044" class="activity__condition-end"/><g opacity="1"><path opacity="1" stroke-width="1" stroke-opacity="1" fill-opacity="1" d="M 1385.9210681915283,732 l 188.42105102539062,0 l 0,34 l-188.42105102539062 0 z" fill="#fdb05e" stroke="#3b4044"/><text dominant-baseline="central" text-anchor="middle" opacity="1" stroke-width="1" stroke-opacity="1" fill-opacity="1" x="1480.1315937042236" y="749" font-size="14" font-family="Source Code Pro, sans-serif" font-style="normal" font-weight="normal" font-variant="normal" width="168.42" height="14" fill="#3b4044" paint-order="stroke" style="stroke-linecap:butt; stroke-linejoin:miter;" stroke="none">Session déjà ouverte</text></g><g opacity="1"><path opacity="1" stroke-width="1" stroke-opacity="1" fill-opacity="1" d="M 145.26315689086914,170 l 297.8947448730469,0 l 0,33 l-297.8947448730469 0 z" fill="#fdb05e" stroke="#3b4044"/><text dominant-baseline="central" text-anchor="middle" opacity="1" stroke-width="1" stroke-opacity="1" fill-opacity="1" x="294.2105293273926" y="186.5" font-size="14" font-family="Source Code Pro, sans-serif" font-style="normal" font-weight="normal" font-variant="normal" width="277.89" height="13" fill="#3b4044" paint-order="stroke" style="stroke-linecap:butt; stroke-linejoin:miter;" stroke="none">Proposer Connexion ou Inscription</text></g><g opacity="1"><path opacity="1" stroke-width="1" stroke-opacity="1" fill-opacity="1" fill="#fdb05e" stroke="#3b4044" d="m 0 15l 12 15l 105.47368621826172 0l 12 -15l -12 -15l -105.47368621826172 0Z" class="activity__decision-bg" transform="matrix(1,0,0,1,229.47369384765625,233)"/><text dominant-baseline="central" text-anchor="middle" opacity="1" stroke-width="1" stroke-opacity="1" fill-opacity="1" x="294.2105293273926" y="248" font-size="14" font-family="Source Code Pro, sans-serif" font-style="normal" font-weight="normal" font-variant="normal" width="109.47368621826172" height="10" fill="#3b4044" paint-order="stroke" style="stroke-linecap:butt; stroke-linejoin:miter;" stroke="none">choix initial</text></g><path opacity="1" stroke-width="1" stroke-opacity="1" fill-opacity="1" width="20" height="20" d="m 284.2105293273926 554l 10 10l 10 -10l -10 -10Z" fill="#fdb05e" stroke="#3b4044" class="activity__condition-end"/><g opacity="1"/><g opacity="1"><path opacity="1" stroke-width="1" stroke-opacity="1" fill-opacity="1" d="M 42.10527038574219,293 l 213.6842041015625,0 l 0,34 l-213.6842041015625 0 z" fill="#fdb05e" stroke="#3b4044"/><text dominant-baseline="central" text-anchor="middle" opacity="1" stroke-width="1" stroke-opacity="1" fill-opacity="1" x="148.94737243652344" y="310" font-size="14" font-family="Source Code Pro, sans-serif" font-style="normal" font-weight="normal" font-variant="normal" width="193.68" height="14" fill="#3b4044" paint-order="stroke" style="stroke-linecap:butt; stroke-linejoin:miter;" stroke="none">Créer un nouveau compte</text></g><g opacity="1"><path opacity="1" stroke-width="1" stroke-opacity="1" fill-opacity="1" d="M 12.631584167480469,357 l 272.63157653808594,0 l 0,30 l-272.63157653808594 0 z" fill="#fdb05e" stroke="#3b4044"/><text dominant-baseline="central" text-anchor="middle" opacity="1" stroke-width="1" stroke-opacity="1" fill-opacity="1" x="148.94737243652344" y="372" font-size="14" font-family="Source Code Pro, sans-serif" font-style="normal" font-weight="normal" font-variant="normal" width="252.63" height="10" fill="#3b4044" paint-order="stroke" style="stroke-linecap:butt; stroke-linejoin:miter;" stroke="none">Demander confirmation code OTP</text></g><g opacity="1"><path opacity="1" stroke-width="1" stroke-opacity="1" fill-opacity="1" d="M 0,417 l 297.8947448730469,0 l 0,33 l-297.8947448730469 0 z" fill="#fdb05e" stroke="#3b4044"/><text dominant-baseline="central" text-anchor="middle" opacity="1" stroke-width="1" stroke-opacity="1" fill-opacity="1" x="148.94737243652344" y="433.5" font-size="14" font-family="Source Code Pro, sans-serif" font-style="normal" font-weight="normal" font-variant="normal" width="277.89" height="13" fill="#3b4044" paint-order="stroke" style="stroke-linecap:butt; stroke-linejoin:miter;" stroke="none">Afficher confirmation inscription</text></g><g opacity="1"><path opacity="1" stroke-width="1" stroke-opacity="1" fill-opacity="1" d="M 50.52632141113281,481.5 l 196.84210205078125,0 l 0,31 l-196.84210205078125 0 z" fill="#fdb05e" stroke="#3b4044"/><text dominant-baseline="central" text-anchor="middle" opacity="1" stroke-width="1" stroke-opacity="1" fill-opacity="1" x="148.94737243652344" y="497" font-size="14" font-family="Source Code Pro, sans-serif" font-style="normal" font-weight="normal" font-variant="normal" width="176.84" height="11" fill="#3b4044" paint-order="stroke" style="stroke-linecap:butt; stroke-linejoin:miter;" stroke="none">Passer à la connexion</text></g><g opacity="1"/><g opacity="1"><path opacity="1" stroke-width="1" stroke-opacity="1" fill-opacity="1" d="M 432.1052703857422,480 l 264.2105255126953,0 l 0,34 l-264.2105255126953 0 z" fill="#fdb05e" stroke="#3b4044"/><text dominant-baseline="central" text-anchor="middle" opacity="1" stroke-width="1" stroke-opacity="1" fill-opacity="1" x="564.2105331420898" y="497" font-size="14" font-family="Source Code Pro, sans-serif" font-style="normal" font-weight="normal" font-variant="normal" width="244.21" height="14" fill="#3b4044" paint-order="stroke" style="stroke-linecap:butt; stroke-linejoin:miter;" stroke="none">Lancer procédure de connexion</text></g><g opacity="1"><path opacity="1" stroke-width="2" stroke-opacity="1" fill-opacity="1" d="M 25.8157901763916,594 l 542.578950881958,0 a 2,2,0,0,1,2,2 l 0,388 a 2,2,0,0,1,-2,2 l -542.578950881958,0 a 2,2,0,0,1,-2,-2 l 0,-388 a 2,2,0,0,1,2,-2 z" fill="#fff" stroke="#3b4044" class="activity__group-rect"/><text dominant-baseline="text-before-edge" text-anchor="left" opacity="1" stroke-width="1" stroke-opacity="1" fill-opacity="1" x="30.8157901763916" y="594" font-size="14" font-family="Source Code Pro, sans-serif" font-style="normal" font-weight="bold" font-variant="normal" fill="#3b4044" paint-order="stroke" style="stroke-linecap:butt; stroke-linejoin:miter;" stroke="none" class="activity__group-rect">Authentification</text></g><g opacity="1"><path opacity="1" stroke-width="1" stroke-opacity="1" fill-opacity="1" d="M 132.6315803527832,609 l 323.15789794921875,0 l 0,33 l-323.15789794921875 0 z" fill="#fdb05e" stroke="#3b4044"/><text dominant-baseline="central" text-anchor="middle" opacity="1" stroke-width="1" stroke-opacity="1" fill-opacity="1" x="294.2105293273926" y="625.5" font-size="14" font-family="Source Code Pro, sans-serif" font-style="normal" font-weight="normal" font-variant="normal" width="303.16" height="13" fill="#3b4044" paint-order="stroke" style="stroke-linecap:butt; stroke-linejoin:miter;" stroke="none">Demander identifiant et mot de passe</text></g><g opacity="1"><path opacity="1" stroke-width="1" stroke-opacity="1" fill-opacity="1" d="M 157.8947410583496,672 l 272.63157653808594,0 l 0,30 l-272.63157653808594 0 z" fill="#fdb05e" stroke="#3b4044"/><text dominant-baseline="central" text-anchor="middle" opacity="1" stroke-width="1" stroke-opacity="1" fill-opacity="1" x="294.2105293273926" y="687" font-size="14" font-family="Source Code Pro, sans-serif" font-style="normal" font-weight="normal" font-variant="normal" width="252.63" height="10" fill="#3b4044" paint-order="stroke" style="stroke-linecap:butt; stroke-linejoin:miter;" stroke="none">Demander confirmation code OTP</text></g><g opacity="1"><path opacity="1" stroke-width="1" stroke-opacity="1" fill-opacity="1" fill="#fdb05e" stroke="#3b4044" d="m 0 15.5l 12 15.5l 206.5263214111328 0l 12 -15.5l -12 -15.5l -206.5263214111328 0Z" class="activity__decision-bg" transform="matrix(1,0,0,1,178.94737243652344,733.5)"/><text dominant-baseline="central" text-anchor="middle" opacity="1" stroke-width="1" stroke-opacity="1" fill-opacity="1" x="294.2105293273926" y="749" font-size="14" font-family="Source Code Pro, sans-serif" font-style="normal" font-weight="normal" font-variant="normal" width="210.5263214111328" height="11" fill="#3b4044" paint-order="stroke" style="stroke-linecap:butt; stroke-linejoin:miter;" stroke="none">utilisateur authentifié ?</text></g><path opacity="1" stroke-width="1" stroke-opacity="1" fill-opacity="1" width="20" height="20" d="m 263.5526371002197 953.5l 10 10l 10 -10l -10 -10Z" fill="#fdb05e" stroke="#3b4044" class="activity__condition-end"/><g opacity="1"><path opacity="1" stroke-width="1" stroke-opacity="1" fill-opacity="1" d="M 134.60526657104492,874 l 146.31578826904297,0 l 0,30 l-146.31578826904297 0 z" fill="#fdb05e" stroke="#3b4044"/><text dominant-baseline="central" text-anchor="middle" opacity="1" stroke-width="1" stroke-opacity="1" fill-opacity="1" x="207.7631607055664" y="889" font-size="14" font-family="Source Code Pro, sans-serif" font-style="normal" font-weight="normal" font-variant="normal" width="126.32" height="10" fill="#3b4044" paint-order="stroke" style="stroke-linecap:butt; stroke-linejoin:miter;" stroke="none">Session ouverte</text></g><g opacity="1"><path opacity="1" stroke-width="1" stroke-opacity="1" fill-opacity="1" d="M 252.7631607055664,796 l 255.7894744873047,0 l 0,31 l-255.7894744873047 0 z" fill="#fdb05e" stroke="#3b4044"/><text dominant-baseline="central" text-anchor="middle" opacity="1" stroke-width="1" stroke-opacity="1" fill-opacity="1" x="380.65789794921875" y="811.5" font-size="14" font-family="Source Code Pro, sans-serif" font-style="normal" font-weight="normal" font-variant="normal" width="235.79" height="11" fill="#3b4044" paint-order="stroke" style="stroke-linecap:butt; stroke-linejoin:miter;" stroke="none">Afficher erreur accès refusé</text></g><g opacity="1" class="activity__keyword"><circle opacity="1" stroke-width="1" stroke-opacity="1" fill-opacity="1" cx="380.65789794921875" cy="889" r="10" stroke="#3b4044" fill="none"/><circle opacity="1" stroke-width="1" stroke-opacity="1" fill-opacity="1" cx="380.65789794921875" cy="889" r="6" fill="#3b4044" stroke="none"/></g><g opacity="1"><path opacity="1" stroke-width="2" stroke-opacity="1" fill-opacity="1" d="M 602.3947410583496,857 l 1423.894760131836,0 a 2,2,0,0,1,2,2 l 0,505 a 2,2,0,0,1,-2,2 l -1423.894760131836,0 a 2,2,0,0,1,-2,-2 l 0,-505 a 2,2,0,0,1,2,-2 z" fill="#fff" stroke="#3b4044" class="activity__group-rect"/><text dominant-baseline="text-before-edge" text-anchor="left" opacity="1" stroke-width="1" stroke-opacity="1" fill-opacity="1" x="607.3947410583496" y="857" font-size="14" font-family="Source Code Pro, sans-serif" font-style="normal" font-weight="bold" font-variant="normal" fill="#3b4044" paint-order="stroke" style="stroke-linecap:butt; stroke-linejoin:miter;" stroke="none" class="activity__group-rect">Portefeuille</text></g><g opacity="1"><path opacity="1" stroke-width="1" stroke-opacity="1" fill-opacity="1" d="M 1322.7631702423096,872 l 314.7368469238281,0 l 0,34 l-314.7368469238281 0 z" fill="#fdb05e" stroke="#3b4044"/><text dominant-baseline="central" text-anchor="middle" opacity="1" stroke-width="1" stroke-opacity="1" fill-opacity="1" x="1480.1315937042236" y="889" font-size="14" font-family="Source Code Pro, sans-serif" font-style="normal" font-weight="normal" font-variant="normal" width="294.74" height="14" fill="#3b4044" paint-order="stroke" style="stroke-linecap:butt; stroke-linejoin:miter;" stroke="none">Utilisateur redirigé sur /dashboard</text></g><g opacity="1"><path opacity="1" stroke-width="1" stroke-opacity="1" fill-opacity="1" d="M 1183.8157978057861,936 l 592.631591796875,0 l 0,35 l-592.631591796875 0 z" fill="#fdb05e" stroke="#3b4044"/><text dominant-baseline="central" text-anchor="middle" opacity="1" stroke-width="1" stroke-opacity="1" fill-opacity="1" x="1480.1315937042236" y="953.5" font-size="14" font-family="Source Code Pro, sans-serif" font-style="normal" font-weight="normal" font-variant="normal" width="572.63" height="15" fill="#3b4044" paint-order="stroke" style="stroke-linecap:butt; stroke-linejoin:miter;" stroke="none">Présenter son solde, ses ordres passés, leur statut et son portfolio</text></g><g opacity="1"><path opacity="1" stroke-width="1" stroke-opacity="1" fill-opacity="1" d="M 1335.3947467803955,1016 l 289.47369384765625,0 l 0,33 l-289.47369384765625 0 z" fill="#fdb05e" stroke="#3b4044"/><text dominant-baseline="central" text-anchor="middle" opacity="1" stroke-width="1" stroke-opacity="1" fill-opacity="1" x="1480.1315937042236" y="1032.5" font-size="14" font-family="Source Code Pro, sans-serif" font-style="normal" font-weight="normal" font-variant="normal" width="269.47" height="13" fill="#3b4044" paint-order="stroke" style="stroke-linecap:butt; stroke-linejoin:miter;" stroke="none">Utilisateur clique sur un bouton</text></g><g opacity="1"><path opacity="1" stroke-width="1" stroke-opacity="1" fill-opacity="1" fill="#fdb05e" stroke="#3b4044" d="m 0 15l 12 15l 139.15789794921875 0l 12 -15l -12 -15l -139.15789794921875 0Z" class="activity__decision-bg" transform="matrix(1,0,0,1,1398.5526123046875,1079)"/><text dominant-baseline="central" text-anchor="middle" opacity="1" stroke-width="1" stroke-opacity="1" fill-opacity="1" x="1480.1315937042236" y="1094" font-size="14" font-family="Source Code Pro, sans-serif" font-style="normal" font-weight="normal" font-variant="normal" width="143.15789794921875" height="10" fill="#3b4044" paint-order="stroke" style="stroke-linecap:butt; stroke-linejoin:miter;" stroke="none">choix utilisateur</text></g><path opacity="1" stroke-width="1" stroke-opacity="1" fill-opacity="1" width="20" height="20" d="m 1286.4473819732666 1277l 10 10l 10 -10l -10 -10Z" fill="#fdb05e" stroke="#3b4044" class="activity__condition-end"/><g opacity="1"/><g opacity="1"><path opacity="1" stroke-width="1" stroke-opacity="1" fill-opacity="1" d="M 733.8157958984375,1139 l 238.94737243652344,0 l 0,34 l-238.94737243652344 0 z" fill="#fdb05e" stroke="#3b4044"/><text dominant-baseline="central" text-anchor="middle" opacity="1" stroke-width="1" stroke-opacity="1" fill-opacity="1" x="853.2894821166992" y="1156" font-size="14" font-family="Source Code Pro, sans-serif" font-style="normal" font-weight="normal" font-variant="normal" width="218.95" height="14" fill="#3b4044" paint-order="stroke" style="stroke-linecap:butt; stroke-linejoin:miter;" stroke="none">Demander montant à déposer</text></g><g opacity="1"><path opacity="1" stroke-width="1" stroke-opacity="1" fill-opacity="1" d="M 746.447380065918,1203 l 213.6842041015625,0 l 0,34 l-213.6842041015625 0 z" fill="#fdb05e" stroke="#3b4044"/><text dominant-baseline="central" text-anchor="middle" opacity="1" stroke-width="1" stroke-opacity="1" fill-opacity="1" x="853.2894821166992" y="1220" font-size="14" font-family="Source Code Pro, sans-serif" font-style="normal" font-weight="normal" font-variant="normal" width="193.68" height="14" fill="#3b4044" paint-order="stroke" style="stroke-linecap:butt; stroke-linejoin:miter;" stroke="none">Confirmer dépôt crédité</text></g><g opacity="1"/><g opacity="1"><path opacity="1" stroke-width="1" stroke-opacity="1" fill-opacity="1" d="M 1020.1315841674805,1203 l 289.47369384765625,0 l 0,34 l-289.47369384765625 0 z" fill="#fdb05e" stroke="#3b4044"/><text dominant-baseline="central" text-anchor="middle" opacity="1" stroke-width="1" stroke-opacity="1" fill-opacity="1" x="1164.8684310913086" y="1220" font-size="14" font-family="Source Code Pro, sans-serif" font-style="normal" font-weight="normal" font-variant="normal" width="269.47" height="14" fill="#3b4044" paint-order="stroke" style="stroke-linecap:butt; stroke-linejoin:miter;" stroke="none">Afficher cotations en temps réel</text></g><g opacity="1"/><g opacity="1"><path opacity="1" stroke-width="1" stroke-opacity="1" fill-opacity="1" d="M 1373.815803527832,1139 l 297.8947448730469,0 l 0,34 l-297.8947448730469 0 z" fill="#fdb05e" stroke="#3b4044"/><text dominant-baseline="central" text-anchor="middle" opacity="1" stroke-width="1" stroke-opacity="1" fill-opacity="1" x="1522.7631759643555" y="1156" font-size="14" font-family="Source Code Pro, sans-serif" font-style="normal" font-weight="normal" font-variant="normal" width="277.89" height="14" fill="#3b4044" paint-order="stroke" style="stroke-linecap:butt; stroke-linejoin:miter;" stroke="none">Demander type ordre et paramètres</text></g><g opacity="1"><path opacity="1" stroke-width="1" stroke-opacity="1" fill-opacity="1" d="M 1369.6052780151367,1203 l 306.3157958984375,0 l 0,34 l-306.3157958984375 0 z" fill="#fdb05e" stroke="#3b4044"/><text dominant-baseline="central" text-anchor="middle" opacity="1" stroke-width="1" stroke-opacity="1" fill-opacity="1" x="1522.7631759643555" y="1220" font-size="14" font-family="Source Code Pro, sans-serif" font-style="normal" font-weight="normal" font-variant="normal" width="286.32" height="14" fill="#3b4044" paint-order="stroke" style="stroke-linecap:butt; stroke-linejoin:miter;" stroke="none">Demande d'ordre envoyée au système</text></g><g opacity="1"/><g opacity="1"><path opacity="1" stroke-width="1" stroke-opacity="1" fill-opacity="1" d="M 1735.9210739135742,1205 l 222.1052703857422,0 l 0,30 l-222.1052703857422 0 z" fill="#fdb05e" stroke="#3b4044"/><text dominant-baseline="central" text-anchor="middle" opacity="1" stroke-width="1" stroke-opacity="1" fill-opacity="1" x="1846.9737091064453" y="1220" font-size="14" font-family="Source Code Pro, sans-serif" font-style="normal" font-weight="normal" font-variant="normal" width="202.11" height="10" fill="#3b4044" paint-order="stroke" style="stroke-linecap:butt; stroke-linejoin:miter;" stroke="none">Afficher derniers ordres</text></g><g opacity="1"><path opacity="1" stroke-width="1" stroke-opacity="1" fill-opacity="1" d="M 1134.8684329986572,1317 l 323.15789794921875,0 l 0,34 l-323.15789794921875 0 z" fill="#fdb05e" stroke="#3b4044"/><text dominant-baseline="central" text-anchor="middle" opacity="1" stroke-width="1" stroke-opacity="1" fill-opacity="1" x="1296.4473819732666" y="1334" font-size="14" font-family="Source Code Pro, sans-serif" font-style="normal" font-weight="normal" font-variant="normal" width="303.16" height="14" fill="#3b4044" paint-order="stroke" style="stroke-linecap:butt; stroke-linejoin:miter;" stroke="none">Utilisateur redirigé vers /dashboard</text></g><g opacity="1" class="activity__keyword"><circle opacity="1" stroke-width="1" stroke-opacity="1" fill-opacity="1" cx="1296.4473819732666" cy="1406" r="10" stroke="#3b4044" fill="none"/><circle opacity="1" stroke-width="1" stroke-opacity="1" fill-opacity="1" cx="1296.4473819732666" cy="1406" r="6" fill="#3b4044" stroke="none"/></g><g opacity="1"><path opacity="1" stroke-width="1" stroke-opacity="1" fill-opacity="1" d="M 915.9210624694824 20L 915.9210624694824 35L 915.9210624694824 50" stroke="#fdb05e" stroke-linejoin="round" fill="none"/><path opacity="1" stroke-width="1" stroke-opacity="1" fill-opacity="1" x="908.992859239207" y="50" stroke="#fdb05e" stroke-linecap="round" d="M 908.992859239207 46L 915.9210624694824 50L 908.992859239207 54" fill="none" transform="matrix(6.123233995736766e-17,1,-1,6.123233995736766e-17,965.9210624694824,-865.9210624694824)"/><path opacity="1" stroke-width="1" stroke-opacity="1" fill-opacity="1" d="M 1005.9210624694824 129.7854477194731L 1480.1315937042236 155L 1480.1315937042236 186.5L 1480.1315937042236 218L 1480.1315937042236 248L 1480.1315937042236 278L 1480.1315937042236 310L 1480.1315937042236 342L 1480.1315937042236 372L 1480.1315937042236 402L 1480.1315937042236 433.5L 1480.1315937042236 465L 1480.1315937042236 497L 1480.1315937042236 529L 1480.1315937042236 554L 1480.1315937042236 579L 1480.1315937042236 594L 1480.1315937042236 625.5L 1480.1315937042236 657L 1480.1315937042236 687L 1480.1315937042236 717L 1480.1315937042236 732" stroke="#fdb05e" stroke-linejoin="round" fill="none"/><path opacity="0.85" stroke-width="1" stroke-opacity="1" fill-opacity="1" d="M 1467.5000143051147,150 l 25.263158798217773,0 l 0,12 l-25.263158798217773 0 z" fill="#fff" stroke="none" class="label-bg"/><text dominant-baseline="central" text-anchor="middle" opacity="1" stroke-width="1" stroke-opacity="1" fill-opacity="1" x="1480.1315937042236" y="155" font-size="14" font-family="Source Code Pro, sans-serif" font-style="normal" font-weight="normal" font-variant="normal" id="id-3-id-4" fill="#3b4044" paint-order="stroke" style="stroke-linecap:butt; stroke-linejoin:miter;" stroke="none" class="activity__edge-label">yes</text><path opacity="1" stroke-width="1" stroke-opacity="1" fill-opacity="1" x="1473.203390473948" y="732" stroke="#fdb05e" stroke-linecap="round" d="M 1473.203390473948 728L 1480.1315937042236 732L 1473.203390473948 736" fill="none" transform="matrix(6.123233995736766e-17,1,-1,6.123233995736766e-17,2212.1315937042236,-748.1315937042236)"/><path opacity="1" stroke-width="1" stroke-opacity="1" fill-opacity="1" d="M 1480.1315937042236 766L 1480.1315937042236 781L 1480.1315937042236 801.5" stroke="#fdb05e" stroke-linejoin="round" fill="none"/><path opacity="1" stroke-width="1" stroke-opacity="1" fill-opacity="1" x="1473.203390473948" y="801.5" stroke="#fdb05e" stroke-linecap="round" d="M 1473.203390473948 797.5L 1480.1315937042236 801.5L 1473.203390473948 805.5" fill="none" transform="matrix(6.123233995736766e-17,1,-1,6.123233995736766e-17,2281.6315937042236,-678.6315937042236)"/><path opacity="1" stroke-width="1" stroke-opacity="1" fill-opacity="1" d="M 825.9210624694824 129.34285709517314L 294.2105293273926 155L 294.2105293273926 170" stroke="#fdb05e" stroke-linejoin="round" fill="none"/><path opacity="0.85" stroke-width="1" stroke-opacity="1" fill-opacity="1" d="M 285.7894763946533,151.5 l 16.842105865478516,0 l 0,9 l-16.842105865478516 0 z" fill="#fff" stroke="none" class="label-bg"/><text dominant-baseline="central" text-anchor="middle" opacity="1" stroke-width="1" stroke-opacity="1" fill-opacity="1" x="294.2105293273926" y="155" font-size="14" font-family="Source Code Pro, sans-serif" font-style="normal" font-weight="normal" font-variant="normal" id="id-3-id-5" fill="#3b4044" paint-order="stroke" style="stroke-linecap:butt; stroke-linejoin:miter;" stroke="none" class="activity__edge-label">no</text><path opacity="1" stroke-width="1" stroke-opacity="1" fill-opacity="1" x="287.28232609711705" y="170" stroke="#fdb05e" stroke-linecap="round" d="M 287.28232609711705 166L 294.2105293273926 170L 287.28232609711705 174" fill="none" transform="matrix(6.123233995736766e-17,1,-1,6.123233995736766e-17,464.2105293273926,-124.21052932739258)"/><path opacity="1" stroke-width="1" stroke-opacity="1" fill-opacity="1" d="M 148.94737243652344 327L 148.94737243652344 342L 148.94737243652344 357" stroke="#fdb05e" stroke-linejoin="round" fill="none"/><path opacity="1" stroke-width="1" stroke-opacity="1" fill-opacity="1" x="142.01916920624794" y="357" stroke="#fdb05e" stroke-linecap="round" d="M 142.01916920624794 353L 148.94737243652344 357L 142.01916920624794 361" fill="none" transform="matrix(6.123233995736766e-17,1,-1,6.123233995736766e-17,505.94737243652344,208.05262756347653)"/><path opacity="1" stroke-width="1" stroke-opacity="1" fill-opacity="1" d="M 148.94737243652344 387L 148.94737243652344 402L 148.94737243652344 417" stroke="#fdb05e" stroke-linejoin="round" fill="none"/><path opacity="1" stroke-width="1" stroke-opacity="1" fill-opacity="1" x="142.01916920624794" y="417" stroke="#fdb05e" stroke-linecap="round" d="M 142.01916920624794 413L 148.94737243652344 417L 142.01916920624794 421" fill="none" transform="matrix(6.123233995736766e-17,1,-1,6.123233995736766e-17,565.9473724365234,268.05262756347656)"/><path opacity="1" stroke-width="1" stroke-opacity="1" fill-opacity="1" d="M 148.94737243652344 450L 148.94737243652344 465L 148.94737243652344 481.5" stroke="#fdb05e" stroke-linejoin="round" fill="none"/><path opacity="1" stroke-width="1" stroke-opacity="1" fill-opacity="1" x="142.01916920624794" y="481.5" stroke="#fdb05e" stroke-linecap="round" d="M 142.01916920624794 477.5L 148.94737243652344 481.5L 142.01916920624794 485.5" fill="none" transform="matrix(6.123233995736766e-17,1,-1,6.123233995736766e-17,630.4473724365234,332.55262756347656)"/><path opacity="1" stroke-width="1" stroke-opacity="1" fill-opacity="1" d="M 229.47368621826172 261.36956551710466L 148.94737243652344 278L 148.94737243652344 293" stroke="#fdb05e" stroke-linejoin="round" fill="none"/><path opacity="0.85" stroke-width="1" stroke-opacity="1" fill-opacity="1" d="M 102.63158416748047,271.5 l 92.63157653808594,0 l 0,15 l-92.63157653808594 0 z" fill="#fff" stroke="none" class="label-bg"/><text dominant-baseline="central" text-anchor="middle" opacity="1" stroke-width="1" stroke-opacity="1" fill-opacity="1" x="148.94737243652344" y="278" font-size="14" font-family="Source Code Pro, sans-serif" font-style="normal" font-weight="normal" font-variant="normal" id="id-6-id-8" fill="#3b4044" paint-order="stroke" style="stroke-linecap:butt; stroke-linejoin:miter;" stroke="none" class="activity__edge-label">Inscription</text><path opacity="1" stroke-width="1" stroke-opacity="1" fill-opacity="1" x="142.01916920624794" y="293" stroke="#fdb05e" stroke-linecap="round" d="M 142.01916920624794 289L 148.94737243652344 293L 142.01916920624794 297" fill="none" transform="matrix(6.123233995736766e-17,1,-1,6.123233995736766e-17,441.94737243652344,144.05262756347653)"/><path opacity="1" stroke-width="1" stroke-opacity="1" fill-opacity="1" d="M 148.94737243652344 512.5L 148.94737243652344 529L 284.2105293273926 552.278985495353" stroke="#fdb05e" stroke-linejoin="round" fill="none"/><path opacity="1" stroke-width="1" stroke-opacity="1" fill-opacity="1" x="277.28232609711705" y="552.278985495353" stroke="#fdb05e" stroke-linecap="round" d="M 277.28232609711705 548.278985495353L 284.2105293273926 552.278985495353L 277.28232609711705 556.278985495353" fill="none" transform="matrix(0.9855116102528422,0.16960797757431748,-0.16960797757431748,0.9855116102528422,97.78867470580394,-40.2027398935237)"/><path opacity="1" stroke-width="1" stroke-opacity="1" fill-opacity="1" d="M 358.94737243652344 255.1929824660551L 564.2105331420898 278L 564.2105331420898 310L 564.2105331420898 342L 564.2105331420898 372L 564.2105331420898 402L 564.2105331420898 433.5L 564.2105331420898 465L 564.2105331420898 480" stroke="#fdb05e" stroke-linejoin="round" fill="none"/><path opacity="0.85" stroke-width="1" stroke-opacity="1" fill-opacity="1" d="M 526.3157958984375,273 l 75.78947448730469,0 l 0,12 l-75.78947448730469 0 z" fill="#fff" stroke="none" class="label-bg"/><text dominant-baseline="central" text-anchor="middle" opacity="1" stroke-width="1" stroke-opacity="1" fill-opacity="1" x="564.2105331420898" y="278" font-size="14" font-family="Source Code Pro, sans-serif" font-style="normal" font-weight="normal" font-variant="normal" id="id-6-id-13" fill="#3b4044" paint-order="stroke" style="stroke-linecap:butt; stroke-linejoin:miter;" stroke="none" class="activity__edge-label">Connexion</text><path opacity="1" stroke-width="1" stroke-opacity="1" fill-opacity="1" x="557.2823299118144" y="480" stroke="#fdb05e" stroke-linecap="round" d="M 557.2823299118144 476L 564.2105331420898 480L 557.2823299118144 484" fill="none" transform="matrix(6.123233995736766e-17,1,-1,6.123233995736766e-17,1044.2105331420898,-84.21053314208984)"/><path opacity="1" stroke-width="1" stroke-opacity="1" fill-opacity="1" d="M 564.2105331420898 514L 564.2105331420898 529L 304.2105293273926 553.0740740871561" stroke="#fdb05e" stroke-linejoin="round" fill="none"/><path opacity="1" stroke-width="1" stroke-opacity="1" fill-opacity="1" x="297.28232609711705" y="553.0740740871561" stroke="#fdb05e" stroke-linecap="round" d="M 297.28232609711705 549.0740740871561L 304.2105293273926 553.0740740871561L 297.28232609711705 557.0740740871561" fill="none" transform="matrix(-0.9957406741755382,0.09219820926918625,-0.09219820926918625,-0.9957406741755382,658.1177661151969,1075.7447594428954)"/><path opacity="1" stroke-width="1" stroke-opacity="1" fill-opacity="1" d="M 294.2105293273926 203L 294.2105293273926 218L 294.2105293273926 233" stroke="#fdb05e" stroke-linejoin="round" fill="none"/><path opacity="1" stroke-width="1" stroke-opacity="1" fill-opacity="1" x="287.28232609711705" y="233" stroke="#fdb05e" stroke-linecap="round" d="M 287.28232609711705 229L 294.2105293273926 233L 287.28232609711705 237" fill="none" transform="matrix(6.123233995736766e-17,1,-1,6.123233995736766e-17,527.2105293273926,-61.21052932739258)"/><path opacity="1" stroke-width="1" stroke-opacity="1" fill-opacity="1" d="M 294.2105293273926 564L 294.2105293273926 579L 294.2105293273926 594L 294.2105293273926 609" stroke="#fdb05e" stroke-linejoin="round" fill="none"/><path opacity="1" stroke-width="1" stroke-opacity="1" fill-opacity="1" x="287.28232609711705" y="609" stroke="#fdb05e" stroke-linecap="round" d="M 287.28232609711705 605L 294.2105293273926 609L 287.28232609711705 613" fill="none" transform="matrix(6.123233995736766e-17,1,-1,6.123233995736766e-17,903.2105293273926,314.78947067260737)"/><path opacity="1" stroke-width="1" stroke-opacity="1" fill-opacity="1" d="M 294.2105293273926 642L 294.2105293273926 657L 294.2105293273926 672" stroke="#fdb05e" stroke-linejoin="round" fill="none"/><path opacity="1" stroke-width="1" stroke-opacity="1" fill-opacity="1" x="287.28232609711705" y="672" stroke="#fdb05e" stroke-linecap="round" d="M 287.28232609711705 668L 294.2105293273926 672L 287.28232609711705 676" fill="none" transform="matrix(6.123233995736766e-17,1,-1,6.123233995736766e-17,966.2105293273926,377.78947067260737)"/><path opacity="1" stroke-width="1" stroke-opacity="1" fill-opacity="1" d="M 252.33758515119553 764.5L 207.7631607055664 781L 207.7631607055664 811.5L 207.7631607055664 842L 207.7631607055664 857L 207.7631607055664 874" stroke="#fdb05e" stroke-linejoin="round" fill="none"/><path opacity="0.85" stroke-width="1" stroke-opacity="1" fill-opacity="1" d="M 195.13158130645752,776 l 25.263158798217773,0 l 0,12 l-25.263158798217773 0 z" fill="#fff" stroke="none" class="label-bg"/><text dominant-baseline="central" text-anchor="middle" opacity="1" stroke-width="1" stroke-opacity="1" fill-opacity="1" x="207.7631607055664" y="781" font-size="14" font-family="Source Code Pro, sans-serif" font-style="normal" font-weight="normal" font-variant="normal" id="id-17-id-18" fill="#3b4044" paint-order="stroke" style="stroke-linecap:butt; stroke-linejoin:miter;" stroke="none" class="activity__edge-label">yes</text><path opacity="1" stroke-width="1" stroke-opacity="1" fill-opacity="1" x="200.8349574752909" y="874" stroke="#fdb05e" stroke-linecap="round" d="M 200.8349574752909 870L 207.7631607055664 874L 200.8349574752909 878" fill="none" transform="matrix(6.123233995736766e-17,1,-1,6.123233995736766e-17,1081.7631607055664,666.2368392944336)"/><path opacity="1" stroke-width="1" stroke-opacity="1" fill-opacity="1" d="M 207.7631607055664 904L 207.7631607055664 921L 263.5526371002197 948.5600002035217" stroke="#fdb05e" stroke-linejoin="round" fill="none"/><path opacity="1" stroke-width="1" stroke-opacity="1" fill-opacity="1" x="256.6244338699442" y="948.5600002035217" stroke="#fdb05e" stroke-linecap="round" d="M 256.6244338699442 944.5600002035217L 263.5526371002197 948.5600002035217L 256.6244338699442 952.5600002035217" fill="none" transform="matrix(0.8965686096331366,0.4429048749116501,-0.4429048749116501,0.8965686096331366,447.3814639264647,-18.617868100065834)"/><path opacity="1" stroke-width="1" stroke-opacity="1" fill-opacity="1" d="M 336.08347350358963 764.5L 380.65789794921875 781L 380.65789794921875 796" stroke="#fdb05e" stroke-linejoin="round" fill="none"/><path opacity="0.85" stroke-width="1" stroke-opacity="1" fill-opacity="1" d="M 372.2368450164795,777.5 l 16.842105865478516,0 l 0,9 l-16.842105865478516 0 z" fill="#fff" stroke="none" class="label-bg"/><text dominant-baseline="central" text-anchor="middle" opacity="1" stroke-width="1" stroke-opacity="1" fill-opacity="1" x="380.65789794921875" y="781" font-size="14" font-family="Source Code Pro, sans-serif" font-style="normal" font-weight="normal" font-variant="normal" id="id-17-id-19" fill="#3b4044" paint-order="stroke" style="stroke-linecap:butt; stroke-linejoin:miter;" stroke="none" class="activity__edge-label">no</text><path opacity="1" stroke-width="1" stroke-opacity="1" fill-opacity="1" x="373.7296947189432" y="796" stroke="#fdb05e" stroke-linecap="round" d="M 373.7296947189432 792L 380.65789794921875 796L 373.7296947189432 800" fill="none" transform="matrix(6.123233995736766e-17,1,-1,6.123233995736766e-17,1176.6578979492188,415.3421020507812)"/><path opacity="1" stroke-width="1" stroke-opacity="1" fill-opacity="1" d="M 380.65789794921875 827L 380.65789794921875 842L 380.65789794921875 857L 380.65789794921875 879" stroke="#fdb05e" stroke-linejoin="round" fill="none"/><path opacity="1" stroke-width="1" stroke-opacity="1" fill-opacity="1" x="373.7296947189432" y="879" stroke="#fdb05e" stroke-linecap="round" d="M 373.7296947189432 875L 380.65789794921875 879L 373.7296947189432 883" fill="none" transform="matrix(6.123233995736766e-17,1,-1,6.123233995736766e-17,1259.6578979492188,498.3421020507812)"/><path opacity="1" stroke-width="1" stroke-opacity="1" fill-opacity="1" d="M 294.2105293273926 702L 294.2105293273926 717L 294.2105293273926 733.5" stroke="#fdb05e" stroke-linejoin="round" fill="none"/><path opacity="1" stroke-width="1" stroke-opacity="1" fill-opacity="1" x="287.28232609711705" y="733.5" stroke="#fdb05e" stroke-linecap="round" d="M 287.28232609711705 729.5L 294.2105293273926 733.5L 287.28232609711705 737.5" fill="none" transform="matrix(6.123233995736766e-17,1,-1,6.123233995736766e-17,1027.7105293273926,439.28947067260737)"/><path opacity="1" stroke-width="1" stroke-opacity="1" fill-opacity="1" d="M 377.9564176797867 764.5L 467.1052665710449 781L 1470.1315937042236 811.1989219412854" stroke="#fdb05e" stroke-linejoin="round" fill="none"/><path opacity="1" stroke-width="1" stroke-opacity="1" fill-opacity="1" x="1463.203390473948" y="811.1989219412854" stroke="#fdb05e" stroke-linecap="round" d="M 1463.203390473948 807.1989219412854L 1470.1315937042236 811.1989219412854L 1463.203390473948 815.1989219412854" fill="none" transform="matrix(0.9995470679199481,0.030094169080317024,-0.030094169080317024,0.9995470679199481,25.07822727535836,-43.87497073620011)"/><path opacity="1" stroke-width="1" stroke-opacity="1" fill-opacity="1" d="M 915.9210624694824 80L 915.9210624694824 95L 915.9210624694824 110" stroke="#fdb05e" stroke-linejoin="round" fill="none"/><path opacity="1" stroke-width="1" stroke-opacity="1" fill-opacity="1" x="908.992859239207" y="110" stroke="#fdb05e" stroke-linecap="round" d="M 908.992859239207 106L 915.9210624694824 110L 908.992859239207 114" fill="none" transform="matrix(6.123233995736766e-17,1,-1,6.123233995736766e-17,1025.9210624694824,-805.9210624694824)"/><path opacity="1" stroke-width="1" stroke-opacity="1" fill-opacity="1" d="M 1480.1315937042236 821.5L 1480.1315937042236 842L 1480.1315937042236 857L 1480.1315937042236 872" stroke="#fdb05e" stroke-linejoin="round" fill="none"/><path opacity="1" stroke-width="1" stroke-opacity="1" fill-opacity="1" x="1473.203390473948" y="872" stroke="#fdb05e" stroke-linecap="round" d="M 1473.203390473948 868L 1480.1315937042236 872L 1473.203390473948 876" fill="none" transform="matrix(6.123233995736766e-17,1,-1,6.123233995736766e-17,2352.1315937042236,-608.1315937042236)"/><path opacity="1" stroke-width="1" stroke-opacity="1" fill-opacity="1" d="M 1480.1315937042236 906L 1480.1315937042236 921L 1480.1315937042236 936" stroke="#fdb05e" stroke-linejoin="round" fill="none"/><path opacity="1" stroke-width="1" stroke-opacity="1" fill-opacity="1" x="1473.203390473948" y="936" stroke="#fdb05e" stroke-linecap="round" d="M 1473.203390473948 932L 1480.1315937042236 936L 1473.203390473948 940" fill="none" transform="matrix(6.123233995736766e-17,1,-1,6.123233995736766e-17,2416.1315937042236,-544.1315937042236)"/><path opacity="1" stroke-width="1" stroke-opacity="1" fill-opacity="1" d="M 1480.1315937042236 971L 1480.1315937042236 986L 1480.1315937042236 1001L 1480.1315937042236 1016" stroke="#fdb05e" stroke-linejoin="round" fill="none"/><path opacity="1" stroke-width="1" stroke-opacity="1" fill-opacity="1" x="1473.203390473948" y="1016" stroke="#fdb05e" stroke-linecap="round" d="M 1473.203390473948 1012L 1480.1315937042236 1016L 1473.203390473948 1020" fill="none" transform="matrix(6.123233995736766e-17,1,-1,6.123233995736766e-17,2496.1315937042236,-464.13159370422363)"/><path opacity="1" stroke-width="1" stroke-opacity="1" fill-opacity="1" d="M 853.2894821166992 1173L 853.2894821166992 1188L 853.2894821166992 1203" stroke="#fdb05e" stroke-linejoin="round" fill="none"/><path opacity="1" stroke-width="1" stroke-opacity="1" fill-opacity="1" x="846.3612788864237" y="1203" stroke="#fdb05e" stroke-linecap="round" d="M 846.3612788864237 1199L 853.2894821166992 1203L 846.3612788864237 1207" fill="none" transform="matrix(6.123233995736766e-17,1,-1,6.123233995736766e-17,2056.289482116699,349.71051788330067)"/><path opacity="1" stroke-width="1" stroke-opacity="1" fill-opacity="1" d="M 1398.5526447296143 1097.9042821533483L 853.2894821166992 1124L 853.2894821166992 1139" stroke="#fdb05e" stroke-linejoin="round" fill="none"/><path opacity="0.85" stroke-width="1" stroke-opacity="1" fill-opacity="1" d="M 781.7105331420898,1117.5 l 143.15789794921875,0 l 0,15 l-143.15789794921875 0 z" fill="#fff" stroke="none" class="label-bg"/><text dominant-baseline="central" text-anchor="middle" opacity="1" stroke-width="1" stroke-opacity="1" fill-opacity="1" x="853.2894821166992" y="1124" font-size="14" font-family="Source Code Pro, sans-serif" font-style="normal" font-weight="normal" font-variant="normal" id="id-25-id-27" fill="#3b4044" paint-order="stroke" style="stroke-linecap:butt; stroke-linejoin:miter;" stroke="none" class="activity__edge-label">Approvisionnement</text><path opacity="1" stroke-width="1" stroke-opacity="1" fill-opacity="1" x="846.3612788864237" y="1139" stroke="#fdb05e" stroke-linecap="round" d="M 846.3612788864237 1135L 853.2894821166992 1139L 846.3612788864237 1143" fill="none" transform="matrix(6.123233995736766e-17,1,-1,6.123233995736766e-17,1992.2894821166992,285.71051788330067)"/><path opacity="1" stroke-width="1" stroke-opacity="1" fill-opacity="1" d="M 853.2894821166992 1237L 853.2894821166992 1252L 1286.4473819732666 1276.4358669898902" stroke="#fdb05e" stroke-linejoin="round" fill="none"/><path opacity="1" stroke-width="1" stroke-opacity="1" fill-opacity="1" x="1279.519178742991" y="1276.4358669898902" stroke="#fdb05e" stroke-linecap="round" d="M 1279.519178742991 1272.4358669898902L 1286.4473819732666 1276.4358669898902L 1279.519178742991 1280.4358669898902" fill="none" transform="matrix(0.9984125577105853,0.056323748151264466,-0.056323748151264466,0.9984125577105853,73.93581328083064,-70.43127007713042)"/><path opacity="1" stroke-width="1" stroke-opacity="1" fill-opacity="1" d="M 1398.5526447296143 1101.7629382670477L 1164.8684310913086 1124L 1164.8684310913086 1156L 1164.8684310913086 1188L 1164.8684310913086 1203" stroke="#fdb05e" stroke-linejoin="round" fill="none"/><path opacity="0.85" stroke-width="1" stroke-opacity="1" fill-opacity="1" d="M 1084.8684310913086,1118.5 l 160,0 l 0,13 l-160 0 z" fill="#fff" stroke="none" class="label-bg"/><text dominant-baseline="central" text-anchor="middle" opacity="1" stroke-width="1" stroke-opacity="1" fill-opacity="1" x="1164.8684310913086" y="1124" font-size="14" font-family="Source Code Pro, sans-serif" font-style="normal" font-weight="normal" font-variant="normal" id="id-25-id-30" fill="#3b4044" paint-order="stroke" style="stroke-linecap:butt; stroke-linejoin:miter;" stroke="none" class="activity__edge-label">Consultation marché</text><path opacity="1" stroke-width="1" stroke-opacity="1" fill-opacity="1" x="1157.940227861033" y="1203" stroke="#fdb05e" stroke-linecap="round" d="M 1157.940227861033 1199L 1164.8684310913086 1203L 1157.940227861033 1207" fill="none" transform="matrix(6.123233995736766e-17,1,-1,6.123233995736766e-17,2367.8684310913086,38.131568908691406)"/><path opacity="1" stroke-width="1" stroke-opacity="1" fill-opacity="1" d="M 1164.8684310913086 1237L 1164.8684310913086 1252L 1286.4473819732666 1275.1000000507354" stroke="#fdb05e" stroke-linejoin="round" fill="none"/><path opacity="1" stroke-width="1" stroke-opacity="1" fill-opacity="1" x="1279.519178742991" y="1275.1000000507354" stroke="#fdb05e" stroke-linecap="round" d="M 1279.519178742991 1271.1000000507354L 1286.4473819732666 1275.1000000507354L 1279.519178742991 1279.1000000507354" fill="none" transform="matrix(0.9824244526154571,0.18666064101255933,-0.18666064101255933,0.9824244526154571,260.62100028417694,-217.7185124771363)"/><path opacity="1" stroke-width="1" stroke-opacity="1" fill-opacity="1" d="M 1522.7631759643555 1173L 1522.7631759643555 1188L 1522.7631759643555 1203" stroke="#fdb05e" stroke-linejoin="round" fill="none"/><path opacity="1" stroke-width="1" stroke-opacity="1" fill-opacity="1" x="1515.8349727340799" y="1203" stroke="#fdb05e" stroke-linecap="round" d="M 1515.8349727340799 1199L 1522.7631759643555 1203L 1515.8349727340799 1207" fill="none" transform="matrix(6.123233995736766e-17,1,-1,6.123233995736766e-17,2725.7631759643555,-319.76317596435547)"/><path opacity="1" stroke-width="1" stroke-opacity="1" fill-opacity="1" d="M 1501.4473848342896 1109L 1522.7631759643555 1124L 1522.7631759643555 1139" stroke="#fdb05e" stroke-linejoin="round" fill="none"/><path opacity="0.85" stroke-width="1" stroke-opacity="1" fill-opacity="1" d="M 1459.605281829834,1119 l 126.31578826904297,0 l 0,12 l-126.31578826904297 0 z" fill="#fff" stroke="none" class="label-bg"/><text dominant-baseline="central" text-anchor="middle" opacity="1" stroke-width="1" stroke-opacity="1" fill-opacity="1" x="1522.7631759643555" y="1124" font-size="14" font-family="Source Code Pro, sans-serif" font-style="normal" font-weight="normal" font-variant="normal" id="id-25-id-32" fill="#3b4044" paint-order="stroke" style="stroke-linecap:butt; stroke-linejoin:miter;" stroke="none" class="activity__edge-label">Passer un ordre</text><path opacity="1" stroke-width="1" stroke-opacity="1" fill-opacity="1" x="1515.8349727340799" y="1139" stroke="#fdb05e" stroke-linecap="round" d="M 1515.8349727340799 1135L 1522.7631759643555 1139L 1515.8349727340799 1143" fill="none" transform="matrix(6.123233995736766e-17,1,-1,6.123233995736766e-17,2661.7631759643555,-383.76317596435547)"/><path opacity="1" stroke-width="1" stroke-opacity="1" fill-opacity="1" d="M 1522.7631759643555 1237L 1522.7631759643555 1252L 1306.4473819732666 1275.8953488592588" stroke="#fdb05e" stroke-linejoin="round" fill="none"/><path opacity="1" stroke-width="1" stroke-opacity="1" fill-opacity="1" x="1299.519178742991" y="1275.8953488592588" stroke="#fdb05e" stroke-linecap="round" d="M 1299.519178742991 1271.8953488592588L 1306.4473819732666 1275.8953488592588L 1299.519178742991 1279.8953488592588" fill="none" transform="matrix(-0.9939540057323404,0.10979724262764828,-0.10979724262764828,-0.9939540057323404,2745.085781750312,2400.632321574406)"/><path opacity="1" stroke-width="1" stroke-opacity="1" fill-opacity="1" d="M 1561.710542678833 1100.6714490143938L 1846.9737091064453 1124L 1846.9737091064453 1156L 1846.9737091064453 1188L 1846.9737091064453 1205" stroke="#fdb05e" stroke-linejoin="round" fill="none"/><path opacity="0.85" stroke-width="1" stroke-opacity="1" fill-opacity="1" d="M 1754.3421325683594,1117 l 185.26315307617188,0 l 0,16 l-185.26315307617188 0 z" fill="#fff" stroke="none" class="label-bg"/><text dominant-baseline="central" text-anchor="middle" opacity="1" stroke-width="1" stroke-opacity="1" fill-opacity="1" x="1846.9737091064453" y="1124" font-size="14" font-family="Source Code Pro, sans-serif" font-style="normal" font-weight="normal" font-variant="normal" id="id-25-id-35" fill="#3b4044" paint-order="stroke" style="stroke-linecap:butt; stroke-linejoin:miter;" stroke="none" class="activity__edge-label">Afficher ordres passés</text><path opacity="1" stroke-width="1" stroke-opacity="1" fill-opacity="1" x="1840.0455058761697" y="1205" stroke="#fdb05e" stroke-linecap="round" d="M 1840.0455058761697 1201L 1846.9737091064453 1205L 1840.0455058761697 1209" fill="none" transform="matrix(6.123233995736766e-17,1,-1,6.123233995736766e-17,3051.9737091064453,-641.9737091064453)"/><path opacity="1" stroke-width="1" stroke-opacity="1" fill-opacity="1" d="M 1846.9737091064453 1235L 1846.9737091064453 1252L 1306.4473819732666 1276.5458891106955" stroke="#fdb05e" stroke-linejoin="round" fill="none"/><path opacity="1" stroke-width="1" stroke-opacity="1" fill-opacity="1" x="1299.519178742991" y="1276.5458891106955" stroke="#fdb05e" stroke-linecap="round" d="M 1299.519178742991 1272.5458891106955L 1306.4473819732666 1276.5458891106955L 1299.519178742991 1280.5458891106955" fill="none" transform="matrix(-0.9989705084653359,0.045364338598818645,-0.045364338598818645,-0.9989705084653359,2669.459447376855,2492.5114636375656)"/><path opacity="1" stroke-width="1" stroke-opacity="1" fill-opacity="1" d="M 1480.1315937042236 1049L 1480.1315937042236 1064L 1480.1315937042236 1079" stroke="#fdb05e" stroke-linejoin="round" fill="none"/><path opacity="1" stroke-width="1" stroke-opacity="1" fill-opacity="1" x="1473.203390473948" y="1079" stroke="#fdb05e" stroke-linecap="round" d="M 1473.203390473948 1075L 1480.1315937042236 1079L 1473.203390473948 1083" fill="none" transform="matrix(6.123233995736766e-17,1,-1,6.123233995736766e-17,2559.1315937042236,-401.13159370422363)"/><path opacity="1" stroke-width="1" stroke-opacity="1" fill-opacity="1" d="M 1296.4473819732666 1287L 1296.4473819732666 1302L 1296.4473819732666 1317" stroke="#fdb05e" stroke-linejoin="round" fill="none"/><path opacity="1" stroke-width="1" stroke-opacity="1" fill-opacity="1" x="1289.519178742991" y="1317" stroke="#fdb05e" stroke-linecap="round" d="M 1289.519178742991 1313L 1296.4473819732666 1317L 1289.519178742991 1321" fill="none" transform="matrix(6.123233995736766e-17,1,-1,6.123233995736766e-17,2613.4473819732666,20.5526180267334)"/><path opacity="1" stroke-width="1" stroke-opacity="1" fill-opacity="1" d="M 1296.4473819732666 1351L 1296.4473819732666 1366L 1296.4473819732666 1381L 1296.4473819732666 1396" stroke="#fdb05e" stroke-linejoin="round" fill="none"/><path opacity="1" stroke-width="1" stroke-opacity="1" fill-opacity="1" x="1289.519178742991" y="1396" stroke="#fdb05e" stroke-linecap="round" d="M 1289.519178742991 1392L 1296.4473819732666 1396L 1289.519178742991 1400" fill="none" transform="matrix(6.123233995736766e-17,1,-1,6.123233995736766e-17,2692.4473819732666,99.5526180267334)"/></g><text dominant-baseline="text-after-edge" text-anchor="middle" opacity="1" stroke-width="1" stroke-opacity="1" fill-opacity="1" x="1014" y="-14" font-size="14" font-family="Source Code Pro, sans-serif" font-style="normal" font-weight="bold" font-variant="normal" fill="#3b4044" paint-order="stroke" style="stroke-linecap:butt; stroke-linejoin:miter;" stroke="none" class="activity__title">Expérience Utilisateur BrokerX</text></g></svg>