<svg xmlns="http://www.w3.org/2000/svg" width="1454.000015258789" height="249" style="width: 1454px; height: 249px;"><defs id="defs_26"/><path opacity="1" stroke-width="1" stroke-opacity="1" fill-opacity="1" d="M 0,0 l 1454.000015258789,0 l 0,249 l-1454.000015258789 0 z" fill="#fff" stroke="none"/><g opacity="1" transform="matrix(1,0,0,1,15,43)"><g opacity="1" class="class__entity"><path opacity="1" stroke-width="1" stroke-opacity="1" fill-opacity="1" d="M 575.4736862182617,0 l 163.57894897460938,0 a 2,2,0,0,1,2,2 l 0,97 a 2,2,0,0,1,-2,2 l -163.57894897460938,0 a 2,2,0,0,1,-2,-2 l 0,-97 a 2,2,0,0,1,2,-2 z" fill="#fdb05e" stroke="#3b4044"/><path opacity="1" stroke-width="1" stroke-opacity="1" fill-opacity="1" d="M 573.4736862182617,42 l 167.57894897460938,0 l 0,59 l-167.57894897460938 0 z" fill="#fffff7" stroke="#3b4044" class="class__section-bg"/><text dominant-baseline="hanging" text-anchor="middle" opacity="1" stroke-width="1" stroke-opacity="1" fill-opacity="1" x="657.2631607055664" y="12" font-size="14" font-family="Source Code Pro, sans-serif" font-style="normal" font-weight="normal" font-variant="normal" fill="#3b4044" width="75.78947448730469" height="9" paint-order="stroke" style="stroke-linecap:butt; stroke-linejoin:miter;" stroke="none">&lt;&lt;actor&gt;&gt;</text><text dominant-baseline="hanging" text-anchor="middle" opacity="1" stroke-width="1" stroke-opacity="1" fill-opacity="1" x="657.2631607055664" y="25" font-size="14" font-family="Source Code Pro, sans-serif" font-style="normal" font-weight="bold" font-variant="normal" fill="#3b4044" width="33.68421173095703" height="9" paint-order="stroke" style="stroke-linecap:butt; stroke-linejoin:miter;" stroke="none">User</text><text dominant-baseline="hanging" text-anchor="middle" opacity="1" stroke-width="1" stroke-opacity="1" fill-opacity="1" x="640.4210548400879" y="46" font-size="14" font-family="Source Code Pro, sans-serif" font-style="normal" font-weight="normal" font-variant="normal" fill="#3b4044" width="117.89473724365234" height="13" paint-order="stroke" style="stroke-linecap:butt; stroke-linejoin:miter;" stroke="none">+email: String</text><text dominant-baseline="hanging" text-anchor="middle" opacity="1" stroke-width="1" stroke-opacity="1" fill-opacity="1" x="657.2631607055664" y="71" font-size="14" font-family="Source Code Pro, sans-serif" font-style="normal" font-weight="normal" font-variant="normal" fill="#3b4044" width="151.57894897460938" height="10" paint-order="stroke" style="stroke-linecap:butt; stroke-linejoin:miter;" stroke="none">+verified: Boolean</text><text dominant-baseline="hanging" text-anchor="middle" opacity="1" stroke-width="1" stroke-opacity="1" fill-opacity="1" x="581.4736862182617" y="93" font-size="14" font-family="Source Code Pro, sans-serif" font-style="normal" font-weight="normal" font-variant="normal" fill="#3b4044" width="0" height="0" paint-order="stroke" style="stroke-linecap:butt; stroke-linejoin:miter;" stroke="none"/><line opacity="1" stroke-width="1" stroke-opacity="1" fill-opacity="1" x1="-83.78947448730469" y1="-8.5" x2="83.78947448730469" y2="-8.5" stroke="#3b4044" class="class-entity__sep-line" transform="matrix(1,0,0,1,657.26318359375,50.5)"/><line opacity="1" stroke-width="1" stroke-opacity="1" fill-opacity="1" x1="-83.78947448730469" y1="38.5" x2="83.78947448730469" y2="38.5" stroke="#3b4044" class="class-entity__sep-line" transform="matrix(1,0,0,1,657.26318359375,50.5)"/></g><g opacity="1" class="class__entity"><path opacity="1" stroke-width="1" stroke-opacity="1" fill-opacity="1" d="M 2,122.5 l 104.63157653808594,0 a 2,2,0,0,1,2,2 l 0,63 a 2,2,0,0,1,-2,2 l -104.63157653808594,0 a 2,2,0,0,1,-2,-2 l 0,-63 a 2,2,0,0,1,2,-2 z" fill="#fdb05e" stroke="#3b4044"/><path opacity="1" stroke-width="1" stroke-opacity="1" fill-opacity="1" d="M 0,165.5 l 108.63157653808594,0 l 0,24 l-108.63157653808594 0 z" fill="#fffff7" stroke="#3b4044" class="class__section-bg"/><text dominant-baseline="hanging" text-anchor="middle" opacity="1" stroke-width="1" stroke-opacity="1" fill-opacity="1" x="54.31578826904297" y="134.5" font-size="14" font-family="Source Code Pro, sans-serif" font-style="normal" font-weight="normal" font-variant="normal" fill="#3b4044" width="92.63157653808594" height="9" paint-order="stroke" style="stroke-linecap:butt; stroke-linejoin:miter;" stroke="none">&lt;&lt;usecase&gt;&gt;</text><text dominant-baseline="hanging" text-anchor="middle" opacity="1" stroke-width="1" stroke-opacity="1" fill-opacity="1" x="54.31578826904297" y="147.5" font-size="14" font-family="Source Code Pro, sans-serif" font-style="normal" font-weight="bold" font-variant="normal" fill="#3b4044" width="75.78947448730469" height="10" paint-order="stroke" style="stroke-linecap:butt; stroke-linejoin:miter;" stroke="none">Sinscrire</text><text dominant-baseline="hanging" text-anchor="middle" opacity="1" stroke-width="1" stroke-opacity="1" fill-opacity="1" x="8" y="169.5" font-size="14" font-family="Source Code Pro, sans-serif" font-style="normal" font-weight="normal" font-variant="normal" fill="#3b4044" width="0" height="0" paint-order="stroke" style="stroke-linecap:butt; stroke-linejoin:miter;" stroke="none"/><text dominant-baseline="hanging" text-anchor="middle" opacity="1" stroke-width="1" stroke-opacity="1" fill-opacity="1" x="8" y="181.5" font-size="14" font-family="Source Code Pro, sans-serif" font-style="normal" font-weight="normal" font-variant="normal" fill="#3b4044" width="0" height="0" paint-order="stroke" style="stroke-linecap:butt; stroke-linejoin:miter;" stroke="none"/><line opacity="1" stroke-width="1" stroke-opacity="1" fill-opacity="1" x1="-54.31578826904297" y1="9.5" x2="54.31578826904297" y2="9.5" stroke="#3b4044" class="class-entity__sep-line" transform="matrix(1,0,0,1,54.31578826904297,156)"/><line opacity="1" stroke-width="1" stroke-opacity="1" fill-opacity="1" x1="-54.31578826904297" y1="21.5" x2="54.31578826904297" y2="21.5" stroke="#3b4044" class="class-entity__sep-line" transform="matrix(1,0,0,1,54.31578826904297,156)"/></g><g opacity="1" class="class__entity"><path opacity="1" stroke-width="1" stroke-opacity="1" fill-opacity="1" d="M 130.63157653808594,123 l 129.89473724365234,0 a 2,2,0,0,1,2,2 l 0,62 a 2,2,0,0,1,-2,2 l -129.89473724365234,0 a 2,2,0,0,1,-2,-2 l 0,-62 a 2,2,0,0,1,2,-2 z" fill="#fdb05e" stroke="#3b4044"/><path opacity="1" stroke-width="1" stroke-opacity="1" fill-opacity="1" d="M 128.63157653808594,165 l 133.89473724365234,0 l 0,24 l-133.89473724365234 0 z" fill="#fffff7" stroke="#3b4044" class="class__section-bg"/><text dominant-baseline="hanging" text-anchor="middle" opacity="1" stroke-width="1" stroke-opacity="1" fill-opacity="1" x="195.5789451599121" y="135" font-size="14" font-family="Source Code Pro, sans-serif" font-style="normal" font-weight="normal" font-variant="normal" fill="#3b4044" width="92.63157653808594" height="9" paint-order="stroke" style="stroke-linecap:butt; stroke-linejoin:miter;" stroke="none">&lt;&lt;usecase&gt;&gt;</text><text dominant-baseline="hanging" text-anchor="middle" opacity="1" stroke-width="1" stroke-opacity="1" fill-opacity="1" x="195.5789451599121" y="148" font-size="14" font-family="Source Code Pro, sans-serif" font-style="normal" font-weight="bold" font-variant="normal" fill="#3b4044" width="117.89473724365234" height="9" paint-order="stroke" style="stroke-linecap:butt; stroke-linejoin:miter;" stroke="none">SeConnecterMFA</text><text dominant-baseline="hanging" text-anchor="middle" opacity="1" stroke-width="1" stroke-opacity="1" fill-opacity="1" x="136.63157653808594" y="169" font-size="14" font-family="Source Code Pro, sans-serif" font-style="normal" font-weight="normal" font-variant="normal" fill="#3b4044" width="0" height="0" paint-order="stroke" style="stroke-linecap:butt; stroke-linejoin:miter;" stroke="none"/><text dominant-baseline="hanging" text-anchor="middle" opacity="1" stroke-width="1" stroke-opacity="1" fill-opacity="1" x="136.63157653808594" y="181" font-size="14" font-family="Source Code Pro, sans-serif" font-style="normal" font-weight="normal" font-variant="normal" fill="#3b4044" width="0" height="0" paint-order="stroke" style="stroke-linecap:butt; stroke-linejoin:miter;" stroke="none"/><line opacity="1" stroke-width="1" stroke-opacity="1" fill-opacity="1" x1="-66.94736862182617" y1="9" x2="66.94736862182617" y2="9" stroke="#3b4044" class="class-entity__sep-line" transform="matrix(1,0,0,1,195.57894897460938,156)"/><line opacity="1" stroke-width="1" stroke-opacity="1" fill-opacity="1" x1="-66.94736862182617" y1="21" x2="66.94736862182617" y2="21" stroke="#3b4044" class="class-entity__sep-line" transform="matrix(1,0,0,1,195.57894897460938,156)"/></g><g opacity="1" class="class__entity"><path opacity="1" stroke-width="1" stroke-opacity="1" fill-opacity="1" d="M 284.5263137817383,122.5 l 138.31578826904297,0 a 2,2,0,0,1,2,2 l 0,63 a 2,2,0,0,1,-2,2 l -138.31578826904297,0 a 2,2,0,0,1,-2,-2 l 0,-63 a 2,2,0,0,1,2,-2 z" fill="#fdb05e" stroke="#3b4044"/><path opacity="1" stroke-width="1" stroke-opacity="1" fill-opacity="1" d="M 282.5263137817383,165.5 l 142.31578826904297,0 l 0,24 l-142.31578826904297 0 z" fill="#fffff7" stroke="#3b4044" class="class__section-bg"/><text dominant-baseline="hanging" text-anchor="middle" opacity="1" stroke-width="1" stroke-opacity="1" fill-opacity="1" x="353.68420791625977" y="134.5" font-size="14" font-family="Source Code Pro, sans-serif" font-style="normal" font-weight="normal" font-variant="normal" fill="#3b4044" width="92.63157653808594" height="9" paint-order="stroke" style="stroke-linecap:butt; stroke-linejoin:miter;" stroke="none">&lt;&lt;usecase&gt;&gt;</text><text dominant-baseline="hanging" text-anchor="middle" opacity="1" stroke-width="1" stroke-opacity="1" fill-opacity="1" x="353.68420791625977" y="147.5" font-size="14" font-family="Source Code Pro, sans-serif" font-style="normal" font-weight="bold" font-variant="normal" fill="#3b4044" width="126.31578826904297" height="10" paint-order="stroke" style="stroke-linecap:butt; stroke-linejoin:miter;" stroke="none">VoirTableauBord</text><text dominant-baseline="hanging" text-anchor="middle" opacity="1" stroke-width="1" stroke-opacity="1" fill-opacity="1" x="290.5263137817383" y="169.5" font-size="14" font-family="Source Code Pro, sans-serif" font-style="normal" font-weight="normal" font-variant="normal" fill="#3b4044" width="0" height="0" paint-order="stroke" style="stroke-linecap:butt; stroke-linejoin:miter;" stroke="none"/><text dominant-baseline="hanging" text-anchor="middle" opacity="1" stroke-width="1" stroke-opacity="1" fill-opacity="1" x="290.5263137817383" y="181.5" font-size="14" font-family="Source Code Pro, sans-serif" font-style="normal" font-weight="normal" font-variant="normal" fill="#3b4044" width="0" height="0" paint-order="stroke" style="stroke-linecap:butt; stroke-linejoin:miter;" stroke="none"/><line opacity="1" stroke-width="1" stroke-opacity="1" fill-opacity="1" x1="-71.15789413452148" y1="9.5" x2="71.15789413452148" y2="9.5" stroke="#3b4044" class="class-entity__sep-line" transform="matrix(1,0,0,1,353.6842041015625,156)"/><line opacity="1" stroke-width="1" stroke-opacity="1" fill-opacity="1" x1="-71.15789413452148" y1="21.5" x2="71.15789413452148" y2="21.5" stroke="#3b4044" class="class-entity__sep-line" transform="matrix(1,0,0,1,353.6842041015625,156)"/></g><g opacity="1" class="class__entity"><path opacity="1" stroke-width="1" stroke-opacity="1" fill-opacity="1" d="M 446.84210205078125,121 l 113.0526351928711,0 a 2,2,0,0,1,2,2 l 0,66 a 2,2,0,0,1,-2,2 l -113.0526351928711,0 a 2,2,0,0,1,-2,-2 l 0,-66 a 2,2,0,0,1,2,-2 z" fill="#fdb05e" stroke="#3b4044"/><path opacity="1" stroke-width="1" stroke-opacity="1" fill-opacity="1" d="M 444.84210205078125,167 l 117.0526351928711,0 l 0,24 l-117.0526351928711 0 z" fill="#fffff7" stroke="#3b4044" class="class__section-bg"/><text dominant-baseline="hanging" text-anchor="middle" opacity="1" stroke-width="1" stroke-opacity="1" fill-opacity="1" x="503.3684196472168" y="133" font-size="14" font-family="Source Code Pro, sans-serif" font-style="normal" font-weight="normal" font-variant="normal" fill="#3b4044" width="92.63157653808594" height="9" paint-order="stroke" style="stroke-linecap:butt; stroke-linejoin:miter;" stroke="none">&lt;&lt;usecase&gt;&gt;</text><text dominant-baseline="hanging" text-anchor="middle" opacity="1" stroke-width="1" stroke-opacity="1" fill-opacity="1" x="503.3684196472168" y="146" font-size="14" font-family="Source Code Pro, sans-serif" font-style="normal" font-weight="bold" font-variant="normal" fill="#3b4044" width="101.0526351928711" height="13" paint-order="stroke" style="stroke-linecap:butt; stroke-linejoin:miter;" stroke="none">DeposerFonds</text><text dominant-baseline="hanging" text-anchor="middle" opacity="1" stroke-width="1" stroke-opacity="1" fill-opacity="1" x="452.84210205078125" y="171" font-size="14" font-family="Source Code Pro, sans-serif" font-style="normal" font-weight="normal" font-variant="normal" fill="#3b4044" width="0" height="0" paint-order="stroke" style="stroke-linecap:butt; stroke-linejoin:miter;" stroke="none"/><text dominant-baseline="hanging" text-anchor="middle" opacity="1" stroke-width="1" stroke-opacity="1" fill-opacity="1" x="452.84210205078125" y="183" font-size="14" font-family="Source Code Pro, sans-serif" font-style="normal" font-weight="normal" font-variant="normal" fill="#3b4044" width="0" height="0" paint-order="stroke" style="stroke-linecap:butt; stroke-linejoin:miter;" stroke="none"/><line opacity="1" stroke-width="1" stroke-opacity="1" fill-opacity="1" x1="-58.52631759643555" y1="11" x2="58.52631759643555" y2="11" stroke="#3b4044" class="class-entity__sep-line" transform="matrix(1,0,0,1,503.368408203125,156)"/><line opacity="1" stroke-width="1" stroke-opacity="1" fill-opacity="1" x1="-58.52631759643555" y1="23" x2="58.52631759643555" y2="23" stroke="#3b4044" class="class-entity__sep-line" transform="matrix(1,0,0,1,503.368408203125,156)"/></g><g opacity="1" class="class__entity"><path opacity="1" stroke-width="1" stroke-opacity="1" fill-opacity="1" d="M 583.8947372436523,122.5 l 146.73684692382812,0 a 2,2,0,0,1,2,2 l 0,63 a 2,2,0,0,1,-2,2 l -146.73684692382812,0 a 2,2,0,0,1,-2,-2 l 0,-63 a 2,2,0,0,1,2,-2 z" fill="#fdb05e" stroke="#3b4044"/><path opacity="1" stroke-width="1" stroke-opacity="1" fill-opacity="1" d="M 581.8947372436523,165.5 l 150.73684692382812,0 l 0,24 l-150.73684692382812 0 z" fill="#fffff7" stroke="#3b4044" class="class__section-bg"/><text dominant-baseline="hanging" text-anchor="middle" opacity="1" stroke-width="1" stroke-opacity="1" fill-opacity="1" x="657.2631607055664" y="134.5" font-size="14" font-family="Source Code Pro, sans-serif" font-style="normal" font-weight="normal" font-variant="normal" fill="#3b4044" width="92.63157653808594" height="9" paint-order="stroke" style="stroke-linecap:butt; stroke-linejoin:miter;" stroke="none">&lt;&lt;usecase&gt;&gt;</text><text dominant-baseline="hanging" text-anchor="middle" opacity="1" stroke-width="1" stroke-opacity="1" fill-opacity="1" x="657.2631607055664" y="147.5" font-size="14" font-family="Source Code Pro, sans-serif" font-style="normal" font-weight="bold" font-variant="normal" fill="#3b4044" width="134.73684692382812" height="10" paint-order="stroke" style="stroke-linecap:butt; stroke-linejoin:miter;" stroke="none">PlacerOrdreAchat</text><text dominant-baseline="hanging" text-anchor="middle" opacity="1" stroke-width="1" stroke-opacity="1" fill-opacity="1" x="589.8947372436523" y="169.5" font-size="14" font-family="Source Code Pro, sans-serif" font-style="normal" font-weight="normal" font-variant="normal" fill="#3b4044" width="0" height="0" paint-order="stroke" style="stroke-linecap:butt; stroke-linejoin:miter;" stroke="none"/><text dominant-baseline="hanging" text-anchor="middle" opacity="1" stroke-width="1" stroke-opacity="1" fill-opacity="1" x="589.8947372436523" y="181.5" font-size="14" font-family="Source Code Pro, sans-serif" font-style="normal" font-weight="normal" font-variant="normal" fill="#3b4044" width="0" height="0" paint-order="stroke" style="stroke-linecap:butt; stroke-linejoin:miter;" stroke="none"/><line opacity="1" stroke-width="1" stroke-opacity="1" fill-opacity="1" x1="-75.36842346191406" y1="9.5" x2="75.36842346191406" y2="9.5" stroke="#3b4044" class="class-entity__sep-line" transform="matrix(1,0,0,1,657.26318359375,156)"/><line opacity="1" stroke-width="1" stroke-opacity="1" fill-opacity="1" x1="-75.36842346191406" y1="21.5" x2="75.36842346191406" y2="21.5" stroke="#3b4044" class="class-entity__sep-line" transform="matrix(1,0,0,1,657.26318359375,156)"/></g><g opacity="1" class="class__entity"><path opacity="1" stroke-width="1" stroke-opacity="1" fill-opacity="1" d="M 754.6315841674805,122.5 l 146.73684692382812,0 a 2,2,0,0,1,2,2 l 0,63 a 2,2,0,0,1,-2,2 l -146.73684692382812,0 a 2,2,0,0,1,-2,-2 l 0,-63 a 2,2,0,0,1,2,-2 z" fill="#fdb05e" stroke="#3b4044"/><path opacity="1" stroke-width="1" stroke-opacity="1" fill-opacity="1" d="M 752.6315841674805,165.5 l 150.73684692382812,0 l 0,24 l-150.73684692382812 0 z" fill="#fffff7" stroke="#3b4044" class="class__section-bg"/><text dominant-baseline="hanging" text-anchor="middle" opacity="1" stroke-width="1" stroke-opacity="1" fill-opacity="1" x="828.0000076293945" y="134.5" font-size="14" font-family="Source Code Pro, sans-serif" font-style="normal" font-weight="normal" font-variant="normal" fill="#3b4044" width="92.63157653808594" height="9" paint-order="stroke" style="stroke-linecap:butt; stroke-linejoin:miter;" stroke="none">&lt;&lt;usecase&gt;&gt;</text><text dominant-baseline="hanging" text-anchor="middle" opacity="1" stroke-width="1" stroke-opacity="1" fill-opacity="1" x="828.0000076293945" y="147.5" font-size="14" font-family="Source Code Pro, sans-serif" font-style="normal" font-weight="bold" font-variant="normal" fill="#3b4044" width="134.73684692382812" height="10" paint-order="stroke" style="stroke-linecap:butt; stroke-linejoin:miter;" stroke="none">PlacerOrdreVente</text><text dominant-baseline="hanging" text-anchor="middle" opacity="1" stroke-width="1" stroke-opacity="1" fill-opacity="1" x="760.6315841674805" y="169.5" font-size="14" font-family="Source Code Pro, sans-serif" font-style="normal" font-weight="normal" font-variant="normal" fill="#3b4044" width="0" height="0" paint-order="stroke" style="stroke-linecap:butt; stroke-linejoin:miter;" stroke="none"/><text dominant-baseline="hanging" text-anchor="middle" opacity="1" stroke-width="1" stroke-opacity="1" fill-opacity="1" x="760.6315841674805" y="181.5" font-size="14" font-family="Source Code Pro, sans-serif" font-style="normal" font-weight="normal" font-variant="normal" fill="#3b4044" width="0" height="0" paint-order="stroke" style="stroke-linecap:butt; stroke-linejoin:miter;" stroke="none"/><line opacity="1" stroke-width="1" stroke-opacity="1" fill-opacity="1" x1="-75.36842346191406" y1="9.5" x2="75.36842346191406" y2="9.5" stroke="#3b4044" class="class-entity__sep-line" transform="matrix(1,0,0,1,828,156)"/><line opacity="1" stroke-width="1" stroke-opacity="1" fill-opacity="1" x1="-75.36842346191406" y1="21.5" x2="75.36842346191406" y2="21.5" stroke="#3b4044" class="class-entity__sep-line" transform="matrix(1,0,0,1,828,156)"/></g><g opacity="1" class="class__entity"><path opacity="1" stroke-width="1" stroke-opacity="1" fill-opacity="1" d="M 925.3684310913086,121 l 180.42105102539062,0 a 2,2,0,0,1,2,2 l 0,66 a 2,2,0,0,1,-2,2 l -180.42105102539062,0 a 2,2,0,0,1,-2,-2 l 0,-66 a 2,2,0,0,1,2,-2 z" fill="#fdb05e" stroke="#3b4044"/><path opacity="1" stroke-width="1" stroke-opacity="1" fill-opacity="1" d="M 923.3684310913086,167 l 184.42105102539062,0 l 0,24 l-184.42105102539062 0 z" fill="#fffff7" stroke="#3b4044" class="class__section-bg"/><text dominant-baseline="hanging" text-anchor="middle" opacity="1" stroke-width="1" stroke-opacity="1" fill-opacity="1" x="1015.5789566040039" y="133" font-size="14" font-family="Source Code Pro, sans-serif" font-style="normal" font-weight="normal" font-variant="normal" fill="#3b4044" width="92.63157653808594" height="9" paint-order="stroke" style="stroke-linecap:butt; stroke-linejoin:miter;" stroke="none">&lt;&lt;usecase&gt;&gt;</text><text dominant-baseline="hanging" text-anchor="middle" opacity="1" stroke-width="1" stroke-opacity="1" fill-opacity="1" x="1015.5789566040039" y="146" font-size="14" font-family="Source Code Pro, sans-serif" font-style="normal" font-weight="bold" font-variant="normal" fill="#3b4044" width="168.42105102539062" height="13" paint-order="stroke" style="stroke-linecap:butt; stroke-linejoin:miter;" stroke="none">VoirHistoriqueOrdres</text><text dominant-baseline="hanging" text-anchor="middle" opacity="1" stroke-width="1" stroke-opacity="1" fill-opacity="1" x="931.3684310913086" y="171" font-size="14" font-family="Source Code Pro, sans-serif" font-style="normal" font-weight="normal" font-variant="normal" fill="#3b4044" width="0" height="0" paint-order="stroke" style="stroke-linecap:butt; stroke-linejoin:miter;" stroke="none"/><text dominant-baseline="hanging" text-anchor="middle" opacity="1" stroke-width="1" stroke-opacity="1" fill-opacity="1" x="931.3684310913086" y="183" font-size="14" font-family="Source Code Pro, sans-serif" font-style="normal" font-weight="normal" font-variant="normal" fill="#3b4044" width="0" height="0" paint-order="stroke" style="stroke-linecap:butt; stroke-linejoin:miter;" stroke="none"/><line opacity="1" stroke-width="1" stroke-opacity="1" fill-opacity="1" x1="-92.21052551269531" y1="11" x2="92.21052551269531" y2="11" stroke="#3b4044" class="class-entity__sep-line" transform="matrix(1,0,0,1,1015.5789794921875,156)"/><line opacity="1" stroke-width="1" stroke-opacity="1" fill-opacity="1" x1="-92.21052551269531" y1="23" x2="92.21052551269531" y2="23" stroke="#3b4044" class="class-entity__sep-line" transform="matrix(1,0,0,1,1015.5789794921875,156)"/></g><g opacity="1" class="class__entity"><path opacity="1" stroke-width="1" stroke-opacity="1" fill-opacity="1" d="M 1129.7894821166992,122.5 l 146.73684692382812,0 a 2,2,0,0,1,2,2 l 0,63 a 2,2,0,0,1,-2,2 l -146.73684692382812,0 a 2,2,0,0,1,-2,-2 l 0,-63 a 2,2,0,0,1,2,-2 z" fill="#fdb05e" stroke="#3b4044"/><path opacity="1" stroke-width="1" stroke-opacity="1" fill-opacity="1" d="M 1127.7894821166992,165.5 l 150.73684692382812,0 l 0,24 l-150.73684692382812 0 z" fill="#fffff7" stroke="#3b4044" class="class__section-bg"/><text dominant-baseline="hanging" text-anchor="middle" opacity="1" stroke-width="1" stroke-opacity="1" fill-opacity="1" x="1203.1579055786133" y="134.5" font-size="14" font-family="Source Code Pro, sans-serif" font-style="normal" font-weight="normal" font-variant="normal" fill="#3b4044" width="92.63157653808594" height="9" paint-order="stroke" style="stroke-linecap:butt; stroke-linejoin:miter;" stroke="none">&lt;&lt;usecase&gt;&gt;</text><text dominant-baseline="hanging" text-anchor="middle" opacity="1" stroke-width="1" stroke-opacity="1" fill-opacity="1" x="1203.1579055786133" y="147.5" font-size="14" font-family="Source Code Pro, sans-serif" font-style="normal" font-weight="bold" font-variant="normal" fill="#3b4044" width="134.73684692382812" height="10" paint-order="stroke" style="stroke-linecap:butt; stroke-linejoin:miter;" stroke="none">VoirPortefeuille</text><text dominant-baseline="hanging" text-anchor="middle" opacity="1" stroke-width="1" stroke-opacity="1" fill-opacity="1" x="1135.7894821166992" y="169.5" font-size="14" font-family="Source Code Pro, sans-serif" font-style="normal" font-weight="normal" font-variant="normal" fill="#3b4044" width="0" height="0" paint-order="stroke" style="stroke-linecap:butt; stroke-linejoin:miter;" stroke="none"/><text dominant-baseline="hanging" text-anchor="middle" opacity="1" stroke-width="1" stroke-opacity="1" fill-opacity="1" x="1135.7894821166992" y="181.5" font-size="14" font-family="Source Code Pro, sans-serif" font-style="normal" font-weight="normal" font-variant="normal" fill="#3b4044" width="0" height="0" paint-order="stroke" style="stroke-linecap:butt; stroke-linejoin:miter;" stroke="none"/><line opacity="1" stroke-width="1" stroke-opacity="1" fill-opacity="1" x1="-75.36842346191406" y1="9.5" x2="75.36842346191406" y2="9.5" stroke="#3b4044" class="class-entity__sep-line" transform="matrix(1,0,0,1,1203.157958984375,156)"/><line opacity="1" stroke-width="1" stroke-opacity="1" fill-opacity="1" x1="-75.36842346191406" y1="21.5" x2="75.36842346191406" y2="21.5" stroke="#3b4044" class="class-entity__sep-line" transform="matrix(1,0,0,1,1203.157958984375,156)"/></g><g opacity="1" class="class__entity"><path opacity="1" stroke-width="1" stroke-opacity="1" fill-opacity="1" d="M 1300.5263290405273,123 l 121.47368621826172,0 a 2,2,0,0,1,2,2 l 0,62 a 2,2,0,0,1,-2,2 l -121.47368621826172,0 a 2,2,0,0,1,-2,-2 l 0,-62 a 2,2,0,0,1,2,-2 z" fill="#fdb05e" stroke="#3b4044"/><path opacity="1" stroke-width="1" stroke-opacity="1" fill-opacity="1" d="M 1298.5263290405273,165 l 125.47368621826172,0 l 0,24 l-125.47368621826172 0 z" fill="#fffff7" stroke="#3b4044" class="class__section-bg"/><text dominant-baseline="hanging" text-anchor="middle" opacity="1" stroke-width="1" stroke-opacity="1" fill-opacity="1" x="1361.2631721496582" y="135" font-size="14" font-family="Source Code Pro, sans-serif" font-style="normal" font-weight="normal" font-variant="normal" fill="#3b4044" width="92.63157653808594" height="9" paint-order="stroke" style="stroke-linecap:butt; stroke-linejoin:miter;" stroke="none">&lt;&lt;usecase&gt;&gt;</text><text dominant-baseline="hanging" text-anchor="middle" opacity="1" stroke-width="1" stroke-opacity="1" fill-opacity="1" x="1361.2631721496582" y="148" font-size="14" font-family="Source Code Pro, sans-serif" font-style="normal" font-weight="bold" font-variant="normal" fill="#3b4044" width="109.47368621826172" height="9" paint-order="stroke" style="stroke-linecap:butt; stroke-linejoin:miter;" stroke="none">SeDeconnecter</text><text dominant-baseline="hanging" text-anchor="middle" opacity="1" stroke-width="1" stroke-opacity="1" fill-opacity="1" x="1306.5263290405273" y="169" font-size="14" font-family="Source Code Pro, sans-serif" font-style="normal" font-weight="normal" font-variant="normal" fill="#3b4044" width="0" height="0" paint-order="stroke" style="stroke-linecap:butt; stroke-linejoin:miter;" stroke="none"/><text dominant-baseline="hanging" text-anchor="middle" opacity="1" stroke-width="1" stroke-opacity="1" fill-opacity="1" x="1306.5263290405273" y="181" font-size="14" font-family="Source Code Pro, sans-serif" font-style="normal" font-weight="normal" font-variant="normal" fill="#3b4044" width="0" height="0" paint-order="stroke" style="stroke-linecap:butt; stroke-linejoin:miter;" stroke="none"/><line opacity="1" stroke-width="1" stroke-opacity="1" fill-opacity="1" x1="-62.73684310913086" y1="9" x2="62.73684310913086" y2="9" stroke="#3b4044" class="class-entity__sep-line" transform="matrix(1,0,0,1,1361.26318359375,156)"/><line opacity="1" stroke-width="1" stroke-opacity="1" fill-opacity="1" x1="-62.73684310913086" y1="21" x2="62.73684310913086" y2="21" stroke="#3b4044" class="class-entity__sep-line" transform="matrix(1,0,0,1,1361.26318359375,156)"/></g><g opacity="1"><path opacity="1" stroke-width="1" stroke-opacity="1" fill-opacity="1" d="M 573.4736862182617 58.90747209163037L 54.31578826904297 111L 54.31578826904297 122.5" stroke="#3b4044" stroke-linecap="round" stroke-dasharray="null" fill="none" class="class__rel-line"/><path opacity="1" stroke-width="1" stroke-opacity="1" fill-opacity="1" x="47.38758503876746" y="122.5" stroke="#3b4044" stroke-linecap="round" d="M 47.38758503876746 118.5L 54.31578826904297 122.5L 47.38758503876746 126.5" fill="none" transform="matrix(6.123233995736766e-17,1,-1,6.123233995736766e-17,176.81578826904297,68.18421173095703)"/><path opacity="1" stroke-width="1" stroke-opacity="1" fill-opacity="1" d="M 573.4736862182617 61.479936146378066L 195.5789451599121 111L 195.5789451599121 123" stroke="#3b4044" stroke-linecap="round" stroke-dasharray="null" fill="none" class="class__rel-line"/><path opacity="1" stroke-width="1" stroke-opacity="1" fill-opacity="1" x="188.6507419296366" y="123" stroke="#3b4044" stroke-linecap="round" d="M 188.6507419296366 119L 195.5789451599121 123L 188.6507419296366 127" fill="none" transform="matrix(6.123233995736766e-17,1,-1,6.123233995736766e-17,318.5789451599121,-72.57894515991211)"/><path opacity="1" stroke-width="1" stroke-opacity="1" fill-opacity="1" d="M 573.4736862182617 67.1983355068102L 353.68420791625977 111L 353.68420791625977 122.5" stroke="#3b4044" stroke-linecap="round" stroke-dasharray="null" fill="none" class="class__rel-line"/><path opacity="1" stroke-width="1" stroke-opacity="1" fill-opacity="1" x="346.75600468598424" y="122.5" stroke="#3b4044" stroke-linecap="round" d="M 346.75600468598424 118.5L 353.68420791625977 122.5L 346.75600468598424 126.5" fill="none" transform="matrix(6.123233995736766e-17,1,-1,6.123233995736766e-17,476.18420791625977,-231.18420791625977)"/><path opacity="1" stroke-width="1" stroke-opacity="1" fill-opacity="1" d="M 573.4736862182617 83.4398078947994L 503.3684196472168 111L 503.3684196472168 121" stroke="#3b4044" stroke-linecap="round" stroke-dasharray="null" fill="none" class="class__rel-line"/><path opacity="1" stroke-width="1" stroke-opacity="1" fill-opacity="1" x="496.44021641694127" y="121" stroke="#3b4044" stroke-linecap="round" d="M 496.44021641694127 117L 503.3684196472168 121L 496.44021641694127 125" fill="none" transform="matrix(6.123233995736766e-17,1,-1,6.123233995736766e-17,624.3684196472168,-382.3684196472168)"/><path opacity="1" stroke-width="1" stroke-opacity="1" fill-opacity="1" d="M 657.2631607055664 101L 657.2631607055664 111L 657.2631607055664 122.5" stroke="#3b4044" stroke-linecap="round" stroke-dasharray="null" fill="none" class="class__rel-line"/><path opacity="1" stroke-width="1" stroke-opacity="1" fill-opacity="1" x="650.3349574752909" y="122.5" stroke="#3b4044" stroke-linecap="round" d="M 650.3349574752909 118.5L 657.2631607055664 122.5L 650.3349574752909 126.5" fill="none" transform="matrix(6.123233995736766e-17,1,-1,6.123233995736766e-17,779.7631607055664,-534.7631607055664)"/><path opacity="1" stroke-width="1" stroke-opacity="1" fill-opacity="1" d="M 741.0526351928711 80.19050499534828L 828.0000076293945 111L 828.0000076293945 122.5" stroke="#3b4044" stroke-linecap="round" stroke-dasharray="null" fill="none" class="class__rel-line"/><path opacity="1" stroke-width="1" stroke-opacity="1" fill-opacity="1" x="821.0718043991191" y="122.5" stroke="#3b4044" stroke-linecap="round" d="M 821.0718043991191 118.5L 828.0000076293945 122.5L 821.0718043991191 126.5" fill="none" transform="matrix(6.123233995736766e-17,1,-1,6.123233995736766e-17,950.5000076293945,-705.5000076293945)"/><path opacity="1" stroke-width="1" stroke-opacity="1" fill-opacity="1" d="M 741.0526351928711 64.64747344244569L 1015.5789566040039 111L 1015.5789566040039 121" stroke="#3b4044" stroke-linecap="round" stroke-dasharray="null" fill="none" class="class__rel-line"/><path opacity="1" stroke-width="1" stroke-opacity="1" fill-opacity="1" x="1008.6507533737284" y="121" stroke="#3b4044" stroke-linecap="round" d="M 1008.6507533737284 117L 1015.5789566040039 121L 1008.6507533737284 125" fill="none" transform="matrix(6.123233995736766e-17,1,-1,6.123233995736766e-17,1136.578956604004,-894.5789566040039)"/><path opacity="1" stroke-width="1" stroke-opacity="1" fill-opacity="1" d="M 741.0526351928711 59.786154985171805L 1203.1579055786133 111L 1203.1579055786133 122.5" stroke="#3b4044" stroke-linecap="round" stroke-dasharray="null" fill="none" class="class__rel-line"/><path opacity="1" stroke-width="1" stroke-opacity="1" fill-opacity="1" x="1196.2297023483377" y="122.5" stroke="#3b4044" stroke-linecap="round" d="M 1196.2297023483377 118.5L 1203.1579055786133 122.5L 1196.2297023483377 126.5" fill="none" transform="matrix(6.123233995736766e-17,1,-1,6.123233995736766e-17,1325.6579055786133,-1080.6579055786133)"/><path opacity="1" stroke-width="1" stroke-opacity="1" fill-opacity="1" d="M 741.0526351928711 57.7006578467002L 1361.2631721496582 111L 1361.2631721496582 123" stroke="#3b4044" stroke-linecap="round" stroke-dasharray="null" fill="none" class="class__rel-line"/><path opacity="1" stroke-width="1" stroke-opacity="1" fill-opacity="1" x="1354.3349689193826" y="123" stroke="#3b4044" stroke-linecap="round" d="M 1354.3349689193826 119L 1361.2631721496582 123L 1354.3349689193826 127" fill="none" transform="matrix(6.123233995736766e-17,1,-1,6.123233995736766e-17,1484.2631721496582,-1238.2631721496582)"/></g><text dominant-baseline="text-after-edge" text-anchor="middle" opacity="1" stroke-width="1" stroke-opacity="1" fill-opacity="1" x="712.0000076293945" y="-14" font-size="14" font-family="Source Code Pro, sans-serif" font-style="normal" font-weight="bold" font-variant="normal" fill="#3b4044" paint-order="stroke" style="stroke-linecap:butt; stroke-linejoin:miter;" stroke="none" class="class__title">BrokerX - Capacités Utilisateur (Cas d'Usage)</text></g></svg>