<svg xmlns="http://www.w3.org/2000/svg" width="235.7894744873047" height="264" style="width: 235.789px; height: 264px;"><defs id="defs_35"/><path opacity="1" stroke-width="1" stroke-opacity="1" fill-opacity="1" d="M 0,0 l 235.7894744873047,0 l 0,264 l-235.7894744873047 0 z" fill="#fff" stroke="none"/><g opacity="1" transform="matrix(1,0,0,1,15,43)"><g opacity="1" class="class__entity"><path opacity="1" stroke-width="1" stroke-opacity="1" fill-opacity="1" d="M 2,0 l 146.73684692382812,0 a 2,2,0,0,1,2,2 l 0,80 a 2,2,0,0,1,-2,2 l -146.73684692382812,0 a 2,2,0,0,1,-2,-2 l 0,-80 a 2,2,0,0,1,2,-2 z" fill="#fdb05e" stroke="#3b4044"/><path opacity="1" stroke-width="1" stroke-opacity="1" fill-opacity="1" d="M 0,47 l 150.73684692382812,0 l 0,37 l-150.73684692382812 0 z" fill="#fffff7" stroke="#3b4044" class="class__section-bg"/><text dominant-baseline="hanging" text-anchor="middle" opacity="1" stroke-width="1" stroke-opacity="1" fill-opacity="1" x="75.36842346191406" y="12" font-size="14" font-family="Source Code Pro, sans-serif" font-style="normal" font-weight="normal" font-variant="normal" fill="#3b4044" width="117.89473724365234" height="10" paint-order="stroke" style="stroke-linecap:butt; stroke-linejoin:miter;" stroke="none">&lt;&lt;executable&gt;&gt;</text><text dominant-baseline="hanging" text-anchor="middle" opacity="1" stroke-width="1" stroke-opacity="1" fill-opacity="1" x="75.36842346191406" y="26" font-size="14" font-family="Source Code Pro, sans-serif" font-style="normal" font-weight="bold" font-variant="normal" fill="#3b4044" width="109.47368621826172" height="13" paint-order="stroke" style="stroke-linecap:butt; stroke-linejoin:miter;" stroke="none">BrokerXBinary</text><text dominant-baseline="hanging" text-anchor="middle" opacity="1" stroke-width="1" stroke-opacity="1" fill-opacity="1" x="75.36842346191406" y="51" font-size="14" font-family="Source Code Pro, sans-serif" font-style="normal" font-weight="normal" font-variant="normal" fill="#3b4044" width="134.73684692382812" height="13" paint-order="stroke" style="stroke-linecap:butt; stroke-linejoin:miter;" stroke="none">Rust Application</text><text dominant-baseline="hanging" text-anchor="middle" opacity="1" stroke-width="1" stroke-opacity="1" fill-opacity="1" x="8" y="76" font-size="14" font-family="Source Code Pro, sans-serif" font-style="normal" font-weight="normal" font-variant="normal" fill="#3b4044" width="0" height="0" paint-order="stroke" style="stroke-linecap:butt; stroke-linejoin:miter;" stroke="none"/><line opacity="1" stroke-width="1" stroke-opacity="1" fill-opacity="1" x1="-75.36842346191406" y1="5" x2="75.36842346191406" y2="5" stroke="#3b4044" class="class-entity__sep-line" transform="matrix(1,0,0,1,75.36842346191406,42)"/><line opacity="1" stroke-width="1" stroke-opacity="1" fill-opacity="1" x1="-75.36842346191406" y1="30" x2="75.36842346191406" y2="30" stroke="#3b4044" class="class-entity__sep-line" transform="matrix(1,0,0,1,75.36842346191406,42)"/></g><g opacity="1" class="class__entity"><path opacity="1" stroke-width="1" stroke-opacity="1" fill-opacity="1" d="M 18.842105865478516,124 l 113.0526351928711,0 a 2,2,0,0,1,2,2 l 0,78 a 2,2,0,0,1,-2,2 l -113.0526351928711,0 a 2,2,0,0,1,-2,-2 l 0,-78 a 2,2,0,0,1,2,-2 z" fill="#fdb05e" stroke="#3b4044"/><path opacity="1" stroke-width="1" stroke-opacity="1" fill-opacity="1" d="M 16.842105865478516,170 l 117.0526351928711,0 l 0,36 l-117.0526351928711 0 z" fill="#fffff7" stroke="#3b4044" class="class__section-bg"/><text dominant-baseline="hanging" text-anchor="middle" opacity="1" stroke-width="1" stroke-opacity="1" fill-opacity="1" x="75.36842346191406" y="136" font-size="14" font-family="Source Code Pro, sans-serif" font-style="normal" font-weight="normal" font-variant="normal" fill="#3b4044" width="101.0526351928711" height="10" paint-order="stroke" style="stroke-linecap:butt; stroke-linejoin:miter;" stroke="none">&lt;&lt;database&gt;&gt;</text><text dominant-baseline="hanging" text-anchor="middle" opacity="1" stroke-width="1" stroke-opacity="1" fill-opacity="1" x="75.36842346191406" y="150" font-size="14" font-family="Source Code Pro, sans-serif" font-style="normal" font-weight="bold" font-variant="normal" fill="#3b4044" width="84.21052551269531" height="12" paint-order="stroke" style="stroke-linecap:butt; stroke-linejoin:miter;" stroke="none">PostgreSQL</text><text dominant-baseline="hanging" text-anchor="middle" opacity="1" stroke-width="1" stroke-opacity="1" fill-opacity="1" x="75.36842346191406" y="174" font-size="14" font-family="Source Code Pro, sans-serif" font-style="normal" font-weight="normal" font-variant="normal" fill="#3b4044" width="101.0526351928711" height="12" paint-order="stroke" style="stroke-linecap:butt; stroke-linejoin:miter;" stroke="none">Data Storage</text><text dominant-baseline="hanging" text-anchor="middle" opacity="1" stroke-width="1" stroke-opacity="1" fill-opacity="1" x="24.842105865478516" y="198" font-size="14" font-family="Source Code Pro, sans-serif" font-style="normal" font-weight="normal" font-variant="normal" fill="#3b4044" width="0" height="0" paint-order="stroke" style="stroke-linecap:butt; stroke-linejoin:miter;" stroke="none"/><line opacity="1" stroke-width="1" stroke-opacity="1" fill-opacity="1" x1="-58.52631759643555" y1="5" x2="58.52631759643555" y2="5" stroke="#3b4044" class="class-entity__sep-line" transform="matrix(1,0,0,1,75.36842346191406,165)"/><line opacity="1" stroke-width="1" stroke-opacity="1" fill-opacity="1" x1="-58.52631759643555" y1="29" x2="58.52631759643555" y2="29" stroke="#3b4044" class="class-entity__sep-line" transform="matrix(1,0,0,1,75.36842346191406,165)"/></g><g opacity="1"><path opacity="1" stroke-width="1" stroke-opacity="1" fill-opacity="1" d="M 75.36842346191406 84L 75.36842346191406 94L 75.36842346191406 104L 75.36842346191406 114L 75.36842346191406 124" stroke="#3b4044" stroke-linecap="round" stroke-dasharray="null" fill="none" class="class__rel-line"/><path opacity="0.85" stroke-width="1" stroke-opacity="1" fill-opacity="1" d="M 12.210529327392578,98 l 126.31578826904297,0 l 0,14 l-126.31578826904297 0 z" fill="#fff" stroke="none" class="label-bg"/><text dominant-baseline="central" text-anchor="middle" opacity="1" stroke-width="1" stroke-opacity="1" fill-opacity="1" x="75.36842346191406" y="104" font-size="14" font-family="Source Code Pro, sans-serif" font-style="normal" font-weight="normal" font-variant="normal" fill="#3b4044" paint-order="stroke" style="stroke-linecap:butt; stroke-linejoin:miter;" stroke="none" class="class__rel-text">SQL connections</text><path opacity="1" stroke-width="1" stroke-opacity="1" fill-opacity="1" x="68.44022023163856" y="124" stroke="#3b4044" stroke-linecap="round" d="M 68.44022023163856 120L 75.36842346191406 124L 68.44022023163856 128" fill="none" transform="matrix(6.123233995736766e-17,1,-1,6.123233995736766e-17,199.36842346191406,48.63157653808592)"/></g><text dominant-baseline="text-after-edge" text-anchor="middle" opacity="1" stroke-width="1" stroke-opacity="1" fill-opacity="1" x="102.89473724365234" y="-14" font-size="14" font-family="Source Code Pro, sans-serif" font-style="normal" font-weight="bold" font-variant="normal" fill="#3b4044" paint-order="stroke" style="stroke-linecap:butt; stroke-linejoin:miter;" stroke="none" class="class__title">BrokerX - Vue de Déploiement</text></g></svg>