<svg xmlns="http://www.w3.org/2000/svg" width="1309.2105121612549" height="911" style="width: 1309.21px; height: 911px;"><defs id="defs_11"/><path opacity="1" stroke-width="1" stroke-opacity="1" fill-opacity="1" d="M 0,0 l 1309.2105121612549,0 l 0,911 l-1309.2105121612549 0 z" fill="#fff" stroke="none"/><g opacity="1" transform="matrix(1,0,0,1,15,39)"><g opacity="1" class="class__entity"><path opacity="1" stroke-width="1" stroke-opacity="1" fill-opacity="1" d="M 429.4210453033447,0 l 155.15789794921875,0 a 2,2,0,0,1,2,2 l 0,221 a 2,2,0,0,1,-2,2 l -155.15789794921875,0 a 2,2,0,0,1,-2,-2 l 0,-221 a 2,2,0,0,1,2,-2 z" fill="#fdb05e" stroke="#3b4044"/><path opacity="1" stroke-width="1" stroke-opacity="1" fill-opacity="1" d="M 427.4210453033447,43 l 159.15789794921875,0 l 0,182 l-159.15789794921875 0 z" fill="#fffff7" stroke="#3b4044" class="class__section-bg"/><text dominant-baseline="hanging" text-anchor="middle" opacity="1" stroke-width="1" stroke-opacity="1" fill-opacity="1" x="506.9999942779541" y="12" font-size="14" font-family="Source Code Pro, sans-serif" font-style="normal" font-weight="normal" font-variant="normal" fill="#3b4044" width="75.78947448730469" height="9" paint-order="stroke" style="stroke-linecap:butt; stroke-linejoin:miter;" stroke="none">&lt;&lt;crate&gt;&gt;</text><text dominant-baseline="hanging" text-anchor="middle" opacity="1" stroke-width="1" stroke-opacity="1" fill-opacity="1" x="506.9999942779541" y="25" font-size="14" font-family="Source Code Pro, sans-serif" font-style="normal" font-weight="bold" font-variant="normal" fill="#3b4044" width="25.263158798217773" height="10" paint-order="stroke" style="stroke-linecap:butt; stroke-linejoin:miter;" stroke="none">app</text><text dominant-baseline="hanging" text-anchor="middle" opacity="1" stroke-width="1" stroke-opacity="1" fill-opacity="1" x="469.10525703430176" y="47" font-size="14" font-family="Source Code Pro, sans-serif" font-style="normal" font-weight="normal" font-variant="normal" fill="#3b4044" width="67.36842346191406" height="10" paint-order="stroke" style="stroke-linecap:butt; stroke-linejoin:miter;" stroke="none">+main.rs</text><text dominant-baseline="hanging" text-anchor="middle" opacity="1" stroke-width="1" stroke-opacity="1" fill-opacity="1" x="477.5263080596924" y="69" font-size="14" font-family="Source Code Pro, sans-serif" font-style="normal" font-weight="normal" font-variant="normal" fill="#3b4044" width="84.21052551269531" height="13" paint-order="stroke" style="stroke-linecap:butt; stroke-linejoin:miter;" stroke="none">+config.rs</text><text dominant-baseline="hanging" text-anchor="middle" opacity="1" stroke-width="1" stroke-opacity="1" fill-opacity="1" x="481.7368335723877" y="94" font-size="14" font-family="Source Code Pro, sans-serif" font-style="normal" font-weight="normal" font-variant="normal" fill="#3b4044" width="92.63157653808594" height="13" paint-order="stroke" style="stroke-linecap:butt; stroke-linejoin:miter;" stroke="none">+logging.rs</text><text dominant-baseline="hanging" text-anchor="middle" opacity="1" stroke-width="1" stroke-opacity="1" fill-opacity="1" x="481.7368335723877" y="119" font-size="14" font-family="Source Code Pro, sans-serif" font-style="normal" font-weight="normal" font-variant="normal" fill="#3b4044" width="92.63157653808594" height="12" paint-order="stroke" style="stroke-linecap:butt; stroke-linejoin:miter;" stroke="none">+web/mod.rs</text><text dominant-baseline="hanging" text-anchor="middle" opacity="1" stroke-width="1" stroke-opacity="1" fill-opacity="1" x="502.7894687652588" y="143" font-size="14" font-family="Source Code Pro, sans-serif" font-style="normal" font-weight="normal" font-variant="normal" fill="#3b4044" width="134.73684692382812" height="12" paint-order="stroke" style="stroke-linecap:butt; stroke-linejoin:miter;" stroke="none">+web/handlers.rs</text><text dominant-baseline="hanging" text-anchor="middle" opacity="1" stroke-width="1" stroke-opacity="1" fill-opacity="1" x="506.9999942779541" y="167" font-size="14" font-family="Source Code Pro, sans-serif" font-style="normal" font-weight="normal" font-variant="normal" fill="#3b4044" width="143.15789794921875" height="13" paint-order="stroke" style="stroke-linecap:butt; stroke-linejoin:miter;" stroke="none">+web/templates.rs</text><text dominant-baseline="hanging" text-anchor="middle" opacity="1" stroke-width="1" stroke-opacity="1" fill-opacity="1" x="481.7368335723877" y="192" font-size="14" font-family="Source Code Pro, sans-serif" font-style="normal" font-weight="normal" font-variant="normal" fill="#3b4044" width="92.63157653808594" height="13" paint-order="stroke" style="stroke-linecap:butt; stroke-linejoin:miter;" stroke="none">+web/jwt.rs</text><text dominant-baseline="hanging" text-anchor="middle" opacity="1" stroke-width="1" stroke-opacity="1" fill-opacity="1" x="435.4210453033447" y="217" font-size="14" font-family="Source Code Pro, sans-serif" font-style="normal" font-weight="normal" font-variant="normal" fill="#3b4044" width="0" height="0" paint-order="stroke" style="stroke-linecap:butt; stroke-linejoin:miter;" stroke="none"/><line opacity="1" stroke-width="1" stroke-opacity="1" fill-opacity="1" x1="-79.57894897460938" y1="-69.5" x2="79.57894897460938" y2="-69.5" stroke="#3b4044" class="class-entity__sep-line" transform="matrix(1,0,0,1,507,112.5)"/><line opacity="1" stroke-width="1" stroke-opacity="1" fill-opacity="1" x1="-79.57894897460938" y1="100.5" x2="79.57894897460938" y2="100.5" stroke="#3b4044" class="class-entity__sep-line" transform="matrix(1,0,0,1,507,112.5)"/></g><g opacity="1" class="class__entity"><path opacity="1" stroke-width="1" stroke-opacity="1" fill-opacity="1" d="M 119.84210205078125,265 l 180.42105102539062,0 a 2,2,0,0,1,2,2 l 0,210 a 2,2,0,0,1,-2,2 l -180.42105102539062,0 a 2,2,0,0,1,-2,-2 l 0,-210 a 2,2,0,0,1,2,-2 z" fill="#fdb05e" stroke="#3b4044"/><path opacity="1" stroke-width="1" stroke-opacity="1" fill-opacity="1" d="M 117.84210205078125,308 l 184.42105102539062,0 l 0,171 l-184.42105102539062 0 z" fill="#fffff7" stroke="#3b4044" class="class__section-bg"/><text dominant-baseline="hanging" text-anchor="middle" opacity="1" stroke-width="1" stroke-opacity="1" fill-opacity="1" x="210.05262756347656" y="277" font-size="14" font-family="Source Code Pro, sans-serif" font-style="normal" font-weight="normal" font-variant="normal" fill="#3b4044" width="75.78947448730469" height="9" paint-order="stroke" style="stroke-linecap:butt; stroke-linejoin:miter;" stroke="none">&lt;&lt;crate&gt;&gt;</text><text dominant-baseline="hanging" text-anchor="middle" opacity="1" stroke-width="1" stroke-opacity="1" fill-opacity="1" x="210.05262756347656" y="290" font-size="14" font-family="Source Code Pro, sans-serif" font-style="normal" font-weight="bold" font-variant="normal" fill="#3b4044" width="50.52631759643555" height="10" paint-order="stroke" style="stroke-linecap:butt; stroke-linejoin:miter;" stroke="none">domain</text><text dominant-baseline="hanging" text-anchor="middle" opacity="1" stroke-width="1" stroke-opacity="1" fill-opacity="1" x="155.31578636169434" y="312" font-size="14" font-family="Source Code Pro, sans-serif" font-style="normal" font-weight="normal" font-variant="normal" fill="#3b4044" width="58.94736862182617" height="10" paint-order="stroke" style="stroke-linecap:butt; stroke-linejoin:miter;" stroke="none">+lib.rs</text><text dominant-baseline="hanging" text-anchor="middle" opacity="1" stroke-width="1" stroke-opacity="1" fill-opacity="1" x="159.52631378173828" y="334" font-size="14" font-family="Source Code Pro, sans-serif" font-style="normal" font-weight="normal" font-variant="normal" fill="#3b4044" width="67.36842346191406" height="8" paint-order="stroke" style="stroke-linecap:butt; stroke-linejoin:miter;" stroke="none">+core.rs</text><text dominant-baseline="hanging" text-anchor="middle" opacity="1" stroke-width="1" stroke-opacity="1" fill-opacity="1" x="159.52631378173828" y="354" font-size="14" font-family="Source Code Pro, sans-serif" font-style="normal" font-weight="normal" font-variant="normal" fill="#3b4044" width="67.36842346191406" height="8" paint-order="stroke" style="stroke-linecap:butt; stroke-linejoin:miter;" stroke="none">+user.rs</text><text dominant-baseline="hanging" text-anchor="middle" opacity="1" stroke-width="1" stroke-opacity="1" fill-opacity="1" x="163.7368392944336" y="374" font-size="14" font-family="Source Code Pro, sans-serif" font-style="normal" font-weight="normal" font-variant="normal" fill="#3b4044" width="75.78947448730469" height="10" paint-order="stroke" style="stroke-linecap:butt; stroke-linejoin:miter;" stroke="none">+order.rs</text><text dominant-baseline="hanging" text-anchor="middle" opacity="1" stroke-width="1" stroke-opacity="1" fill-opacity="1" x="180.5789451599121" y="396" font-size="14" font-family="Source Code Pro, sans-serif" font-style="normal" font-weight="normal" font-variant="normal" fill="#3b4044" width="109.47368621826172" height="13" paint-order="stroke" style="stroke-linecap:butt; stroke-linejoin:miter;" stroke="none">+portfolio.rs</text><text dominant-baseline="hanging" text-anchor="middle" opacity="1" stroke-width="1" stroke-opacity="1" fill-opacity="1" x="180.5789451599121" y="421" font-size="14" font-family="Source Code Pro, sans-serif" font-style="normal" font-weight="normal" font-variant="normal" fill="#3b4044" width="109.47368621826172" height="13" paint-order="stroke" style="stroke-linecap:butt; stroke-linejoin:miter;" stroke="none">+pre_trade.rs</text><text dominant-baseline="hanging" text-anchor="middle" opacity="1" stroke-width="1" stroke-opacity="1" fill-opacity="1" x="210.05262756347656" y="446" font-size="14" font-family="Source Code Pro, sans-serif" font-style="normal" font-weight="normal" font-variant="normal" fill="#3b4044" width="168.42105102539062" height="13" paint-order="stroke" style="stroke-linecap:butt; stroke-linejoin:miter;" stroke="none">+order_processing.rs</text><text dominant-baseline="hanging" text-anchor="middle" opacity="1" stroke-width="1" stroke-opacity="1" fill-opacity="1" x="125.84210205078125" y="471" font-size="14" font-family="Source Code Pro, sans-serif" font-style="normal" font-weight="normal" font-variant="normal" fill="#3b4044" width="0" height="0" paint-order="stroke" style="stroke-linecap:butt; stroke-linejoin:miter;" stroke="none"/><line opacity="1" stroke-width="1" stroke-opacity="1" fill-opacity="1" x1="-92.21052551269531" y1="-64" x2="92.21052551269531" y2="-64" stroke="#3b4044" class="class-entity__sep-line" transform="matrix(1,0,0,1,210.05262756347656,372)"/><line opacity="1" stroke-width="1" stroke-opacity="1" fill-opacity="1" x1="-92.21052551269531" y1="95" x2="92.21052551269531" y2="95" stroke="#3b4044" class="class-entity__sep-line" transform="matrix(1,0,0,1,210.05262756347656,372)"/></g><g opacity="1" class="class__entity"><path opacity="1" stroke-width="1" stroke-opacity="1" fill-opacity="1" d="M 33.47367858886719,543 l 146.73684692382812,0 a 2,2,0,0,1,2,2 l 0,119 a 2,2,0,0,1,-2,2 l -146.73684692382812,0 a 2,2,0,0,1,-2,-2 l 0,-119 a 2,2,0,0,1,2,-2 z" fill="#fdb05e" stroke="#3b4044"/><path opacity="1" stroke-width="1" stroke-opacity="1" fill-opacity="1" d="M 31.473678588867188,589 l 150.73684692382812,0 l 0,77 l-150.73684692382812 0 z" fill="#fffff7" stroke="#3b4044" class="class__section-bg"/><text dominant-baseline="hanging" text-anchor="middle" opacity="1" stroke-width="1" stroke-opacity="1" fill-opacity="1" x="106.84210205078125" y="555" font-size="14" font-family="Source Code Pro, sans-serif" font-style="normal" font-weight="normal" font-variant="normal" fill="#3b4044" width="75.78947448730469" height="9" paint-order="stroke" style="stroke-linecap:butt; stroke-linejoin:miter;" stroke="none">&lt;&lt;crate&gt;&gt;</text><text dominant-baseline="hanging" text-anchor="middle" opacity="1" stroke-width="1" stroke-opacity="1" fill-opacity="1" x="106.84210205078125" y="568" font-size="14" font-family="Source Code Pro, sans-serif" font-style="normal" font-weight="bold" font-variant="normal" fill="#3b4044" width="134.73684692382812" height="13" paint-order="stroke" style="stroke-linecap:butt; stroke-linejoin:miter;" stroke="none">database_adapter</text><text dominant-baseline="hanging" text-anchor="middle" opacity="1" stroke-width="1" stroke-opacity="1" fill-opacity="1" x="68.94736289978027" y="593" font-size="14" font-family="Source Code Pro, sans-serif" font-style="normal" font-weight="normal" font-variant="normal" fill="#3b4044" width="58.94736862182617" height="10" paint-order="stroke" style="stroke-linecap:butt; stroke-linejoin:miter;" stroke="none">+lib.rs</text><text dominant-baseline="hanging" text-anchor="middle" opacity="1" stroke-width="1" stroke-opacity="1" fill-opacity="1" x="64.73683738708496" y="615" font-size="14" font-family="Source Code Pro, sans-serif" font-style="normal" font-weight="normal" font-variant="normal" fill="#3b4044" width="50.52631759643555" height="10" paint-order="stroke" style="stroke-linecap:butt; stroke-linejoin:miter;" stroke="none">+db.rs</text><text dominant-baseline="hanging" text-anchor="middle" opacity="1" stroke-width="1" stroke-opacity="1" fill-opacity="1" x="77.36841583251953" y="637" font-size="14" font-family="Source Code Pro, sans-serif" font-style="normal" font-weight="normal" font-variant="normal" fill="#3b4044" width="75.78947448730469" height="9" paint-order="stroke" style="stroke-linecap:butt; stroke-linejoin:miter;" stroke="none">+tests.rs</text><text dominant-baseline="hanging" text-anchor="middle" opacity="1" stroke-width="1" stroke-opacity="1" fill-opacity="1" x="39.47367858886719" y="658" font-size="14" font-family="Source Code Pro, sans-serif" font-style="normal" font-weight="normal" font-variant="normal" fill="#3b4044" width="0" height="0" paint-order="stroke" style="stroke-linecap:butt; stroke-linejoin:miter;" stroke="none"/><line opacity="1" stroke-width="1" stroke-opacity="1" fill-opacity="1" x1="-75.36842346191406" y1="-15.5" x2="75.36842346191406" y2="-15.5" stroke="#3b4044" class="class-entity__sep-line" transform="matrix(1,0,0,1,106.84210205078125,604.5)"/><line opacity="1" stroke-width="1" stroke-opacity="1" fill-opacity="1" x1="-75.36842346191406" y1="49.5" x2="75.36842346191406" y2="49.5" stroke="#3b4044" class="class-entity__sep-line" transform="matrix(1,0,0,1,106.84210205078125,604.5)"/></g><g opacity="1" class="class__entity"><path opacity="1" stroke-width="1" stroke-opacity="1" fill-opacity="1" d="M 235.6842041015625,519 l 155.15789794921875,0 a 2,2,0,0,1,2,2 l 0,167 a 2,2,0,0,1,-2,2 l -155.15789794921875,0 a 2,2,0,0,1,-2,-2 l 0,-167 a 2,2,0,0,1,2,-2 z" fill="#fdb05e" stroke="#3b4044"/><path opacity="1" stroke-width="1" stroke-opacity="1" fill-opacity="1" d="M 233.6842041015625,565 l 159.15789794921875,0 l 0,125 l-159.15789794921875 0 z" fill="#fffff7" stroke="#3b4044" class="class__section-bg"/><text dominant-baseline="hanging" text-anchor="middle" opacity="1" stroke-width="1" stroke-opacity="1" fill-opacity="1" x="313.2631530761719" y="531" font-size="14" font-family="Source Code Pro, sans-serif" font-style="normal" font-weight="normal" font-variant="normal" fill="#3b4044" width="75.78947448730469" height="9" paint-order="stroke" style="stroke-linecap:butt; stroke-linejoin:miter;" stroke="none">&lt;&lt;crate&gt;&gt;</text><text dominant-baseline="hanging" text-anchor="middle" opacity="1" stroke-width="1" stroke-opacity="1" fill-opacity="1" x="313.2631530761719" y="544" font-size="14" font-family="Source Code Pro, sans-serif" font-style="normal" font-weight="bold" font-variant="normal" fill="#3b4044" width="92.63157653808594" height="13" paint-order="stroke" style="stroke-linecap:butt; stroke-linejoin:miter;" stroke="none">mfa_adapter</text><text dominant-baseline="hanging" text-anchor="middle" opacity="1" stroke-width="1" stroke-opacity="1" fill-opacity="1" x="271.1578884124756" y="569" font-size="14" font-family="Source Code Pro, sans-serif" font-style="normal" font-weight="normal" font-variant="normal" fill="#3b4044" width="58.94736862182617" height="10" paint-order="stroke" style="stroke-linecap:butt; stroke-linejoin:miter;" stroke="none">+lib.rs</text><text dominant-baseline="hanging" text-anchor="middle" opacity="1" stroke-width="1" stroke-opacity="1" fill-opacity="1" x="271.1578884124756" y="591" font-size="14" font-family="Source Code Pro, sans-serif" font-style="normal" font-weight="normal" font-variant="normal" fill="#3b4044" width="58.94736862182617" height="10" paint-order="stroke" style="stroke-linecap:butt; stroke-linejoin:miter;" stroke="none">+mfa.rs</text><text dominant-baseline="hanging" text-anchor="middle" opacity="1" stroke-width="1" stroke-opacity="1" fill-opacity="1" x="309.05262756347656" y="613" font-size="14" font-family="Source Code Pro, sans-serif" font-style="normal" font-weight="normal" font-variant="normal" fill="#3b4044" width="134.73684692382812" height="13" paint-order="stroke" style="stroke-linecap:butt; stroke-linejoin:miter;" stroke="none">EmailOtpProvider</text><text dominant-baseline="hanging" text-anchor="middle" opacity="1" stroke-width="1" stroke-opacity="1" fill-opacity="1" x="313.2631530761719" y="638" font-size="14" font-family="Source Code Pro, sans-serif" font-style="normal" font-weight="normal" font-variant="normal" fill="#3b4044" width="143.15789794921875" height="10" paint-order="stroke" style="stroke-linecap:butt; stroke-linejoin:miter;" stroke="none">MfaProvider trait</text><text dominant-baseline="hanging" text-anchor="middle" opacity="1" stroke-width="1" stroke-opacity="1" fill-opacity="1" x="283.78946685791016" y="660" font-size="14" font-family="Source Code Pro, sans-serif" font-style="normal" font-weight="normal" font-variant="normal" fill="#3b4044" width="84.21052551269531" height="10" paint-order="stroke" style="stroke-linecap:butt; stroke-linejoin:miter;" stroke="none">MfaService</text><text dominant-baseline="hanging" text-anchor="middle" opacity="1" stroke-width="1" stroke-opacity="1" fill-opacity="1" x="241.6842041015625" y="682" font-size="14" font-family="Source Code Pro, sans-serif" font-style="normal" font-weight="normal" font-variant="normal" fill="#3b4044" width="0" height="0" paint-order="stroke" style="stroke-linecap:butt; stroke-linejoin:miter;" stroke="none"/><line opacity="1" stroke-width="1" stroke-opacity="1" fill-opacity="1" x1="-79.57894897460938" y1="-39.5" x2="79.57894897460938" y2="-39.5" stroke="#3b4044" class="class-entity__sep-line" transform="matrix(1,0,0,1,313.2631530761719,604.5)"/><line opacity="1" stroke-width="1" stroke-opacity="1" fill-opacity="1" x1="-79.57894897460938" y1="73.5" x2="79.57894897460938" y2="73.5" stroke="#3b4044" class="class-entity__sep-line" transform="matrix(1,0,0,1,313.2631530761719,604.5)"/></g><g opacity="1" class="class__entity"><path opacity="1" stroke-width="1" stroke-opacity="1" fill-opacity="1" d="M 460.57894134521484,333.5 l 121.47368621826172,0 a 2,2,0,0,1,2,2 l 0,73 a 2,2,0,0,1,-2,2 l -121.47368621826172,0 a 2,2,0,0,1,-2,-2 l 0,-73 a 2,2,0,0,1,2,-2 z" fill="#fdb05e" stroke="#3b4044"/><path opacity="1" stroke-width="1" stroke-opacity="1" fill-opacity="1" d="M 458.57894134521484,376.5 l 125.47368621826172,0 l 0,34 l-125.47368621826172 0 z" fill="#fffff7" stroke="#3b4044" class="class__section-bg"/><text dominant-baseline="hanging" text-anchor="middle" opacity="1" stroke-width="1" stroke-opacity="1" fill-opacity="1" x="521.3157844543457" y="345.5" font-size="14" font-family="Source Code Pro, sans-serif" font-style="normal" font-weight="normal" font-variant="normal" fill="#3b4044" width="101.0526351928711" height="10" paint-order="stroke" style="stroke-linecap:butt; stroke-linejoin:miter;" stroke="none">&lt;&lt;external&gt;&gt;</text><text dominant-baseline="hanging" text-anchor="middle" opacity="1" stroke-width="1" stroke-opacity="1" fill-opacity="1" x="521.3157844543457" y="359.5" font-size="14" font-family="Source Code Pro, sans-serif" font-style="normal" font-weight="bold" font-variant="normal" fill="#3b4044" width="33.68421173095703" height="9" paint-order="stroke" style="stroke-linecap:butt; stroke-linejoin:miter;" stroke="none">Axum</text><text dominant-baseline="hanging" text-anchor="middle" opacity="1" stroke-width="1" stroke-opacity="1" fill-opacity="1" x="521.3157844543457" y="380.5" font-size="14" font-family="Source Code Pro, sans-serif" font-style="normal" font-weight="normal" font-variant="normal" fill="#3b4044" width="109.47368621826172" height="10" paint-order="stroke" style="stroke-linecap:butt; stroke-linejoin:miter;" stroke="none">Web framework</text><text dominant-baseline="hanging" text-anchor="middle" opacity="1" stroke-width="1" stroke-opacity="1" fill-opacity="1" x="466.57894134521484" y="402.5" font-size="14" font-family="Source Code Pro, sans-serif" font-style="normal" font-weight="normal" font-variant="normal" fill="#3b4044" width="0" height="0" paint-order="stroke" style="stroke-linecap:butt; stroke-linejoin:miter;" stroke="none"/><line opacity="1" stroke-width="1" stroke-opacity="1" fill-opacity="1" x1="-62.73684310913086" y1="4.5" x2="62.73684310913086" y2="4.5" stroke="#3b4044" class="class-entity__sep-line" transform="matrix(1,0,0,1,521.3157958984375,372)"/><line opacity="1" stroke-width="1" stroke-opacity="1" fill-opacity="1" x1="-62.73684310913086" y1="26.5" x2="62.73684310913086" y2="26.5" stroke="#3b4044" class="class-entity__sep-line" transform="matrix(1,0,0,1,521.3157958984375,372)"/></g><g opacity="1" class="class__entity"><path opacity="1" stroke-width="1" stroke-opacity="1" fill-opacity="1" d="M 33.47367858886719,777.5 l 146.73684692382812,0 a 2,2,0,0,1,2,2 l 0,75 a 2,2,0,0,1,-2,2 l -146.73684692382812,0 a 2,2,0,0,1,-2,-2 l 0,-75 a 2,2,0,0,1,2,-2 z" fill="#fdb05e" stroke="#3b4044"/><path opacity="1" stroke-width="1" stroke-opacity="1" fill-opacity="1" d="M 31.473678588867188,822.5 l 150.73684692382812,0 l 0,34 l-150.73684692382812 0 z" fill="#fffff7" stroke="#3b4044" class="class__section-bg"/><text dominant-baseline="hanging" text-anchor="middle" opacity="1" stroke-width="1" stroke-opacity="1" fill-opacity="1" x="106.84210205078125" y="789.5" font-size="14" font-family="Source Code Pro, sans-serif" font-style="normal" font-weight="normal" font-variant="normal" fill="#3b4044" width="101.0526351928711" height="10" paint-order="stroke" style="stroke-linecap:butt; stroke-linejoin:miter;" stroke="none">&lt;&lt;external&gt;&gt;</text><text dominant-baseline="hanging" text-anchor="middle" opacity="1" stroke-width="1" stroke-opacity="1" fill-opacity="1" x="106.84210205078125" y="803.5" font-size="14" font-family="Source Code Pro, sans-serif" font-style="normal" font-weight="bold" font-variant="normal" fill="#3b4044" width="33.68421173095703" height="11" paint-order="stroke" style="stroke-linecap:butt; stroke-linejoin:miter;" stroke="none">SQLx</text><text dominant-baseline="hanging" text-anchor="middle" opacity="1" stroke-width="1" stroke-opacity="1" fill-opacity="1" x="106.84210205078125" y="826.5" font-size="14" font-family="Source Code Pro, sans-serif" font-style="normal" font-weight="normal" font-variant="normal" fill="#3b4044" width="134.73684692382812" height="10" paint-order="stroke" style="stroke-linecap:butt; stroke-linejoin:miter;" stroke="none">Database toolkit</text><text dominant-baseline="hanging" text-anchor="middle" opacity="1" stroke-width="1" stroke-opacity="1" fill-opacity="1" x="39.47367858886719" y="848.5" font-size="14" font-family="Source Code Pro, sans-serif" font-style="normal" font-weight="normal" font-variant="normal" fill="#3b4044" width="0" height="0" paint-order="stroke" style="stroke-linecap:butt; stroke-linejoin:miter;" stroke="none"/><line opacity="1" stroke-width="1" stroke-opacity="1" fill-opacity="1" x1="-75.36842346191406" y1="5.5" x2="75.36842346191406" y2="5.5" stroke="#3b4044" class="class-entity__sep-line" transform="matrix(1,0,0,1,106.84210205078125,817)"/><line opacity="1" stroke-width="1" stroke-opacity="1" fill-opacity="1" x1="-75.36842346191406" y1="27.5" x2="75.36842346191406" y2="27.5" stroke="#3b4044" class="class-entity__sep-line" transform="matrix(1,0,0,1,106.84210205078125,817)"/></g><g opacity="1" class="class__entity"><path opacity="1" stroke-width="1" stroke-opacity="1" fill-opacity="1" d="M 252.52630996704102,777 l 121.47368621826172,0 a 2,2,0,0,1,2,2 l 0,76 a 2,2,0,0,1,-2,2 l -121.47368621826172,0 a 2,2,0,0,1,-2,-2 l 0,-76 a 2,2,0,0,1,2,-2 z" fill="#fdb05e" stroke="#3b4044"/><path opacity="1" stroke-width="1" stroke-opacity="1" fill-opacity="1" d="M 250.52630996704102,820 l 125.47368621826172,0 l 0,37 l-125.47368621826172 0 z" fill="#fffff7" stroke="#3b4044" class="class__section-bg"/><text dominant-baseline="hanging" text-anchor="middle" opacity="1" stroke-width="1" stroke-opacity="1" fill-opacity="1" x="313.2631530761719" y="789" font-size="14" font-family="Source Code Pro, sans-serif" font-style="normal" font-weight="normal" font-variant="normal" fill="#3b4044" width="101.0526351928711" height="10" paint-order="stroke" style="stroke-linecap:butt; stroke-linejoin:miter;" stroke="none">&lt;&lt;external&gt;&gt;</text><text dominant-baseline="hanging" text-anchor="middle" opacity="1" stroke-width="1" stroke-opacity="1" fill-opacity="1" x="313.2631530761719" y="803" font-size="14" font-family="Source Code Pro, sans-serif" font-style="normal" font-weight="bold" font-variant="normal" fill="#3b4044" width="50.52631759643555" height="9" paint-order="stroke" style="stroke-linecap:butt; stroke-linejoin:miter;" stroke="none">Lettre</text><text dominant-baseline="hanging" text-anchor="middle" opacity="1" stroke-width="1" stroke-opacity="1" fill-opacity="1" x="313.2631530761719" y="824" font-size="14" font-family="Source Code Pro, sans-serif" font-style="normal" font-weight="normal" font-variant="normal" fill="#3b4044" width="109.47368621826172" height="13" paint-order="stroke" style="stroke-linecap:butt; stroke-linejoin:miter;" stroke="none">Email library</text><text dominant-baseline="hanging" text-anchor="middle" opacity="1" stroke-width="1" stroke-opacity="1" fill-opacity="1" x="258.526309967041" y="849" font-size="14" font-family="Source Code Pro, sans-serif" font-style="normal" font-weight="normal" font-variant="normal" fill="#3b4044" width="0" height="0" paint-order="stroke" style="stroke-linecap:butt; stroke-linejoin:miter;" stroke="none"/><line opacity="1" stroke-width="1" stroke-opacity="1" fill-opacity="1" x1="-62.73684310913086" y1="3" x2="62.73684310913086" y2="3" stroke="#3b4044" class="class-entity__sep-line" transform="matrix(1,0,0,1,313.2631530761719,817)"/><line opacity="1" stroke-width="1" stroke-opacity="1" fill-opacity="1" x1="-62.73684310913086" y1="28" x2="62.73684310913086" y2="28" stroke="#3b4044" class="class-entity__sep-line" transform="matrix(1,0,0,1,313.2631530761719,817)"/></g><g opacity="1" class="class__entity"><path opacity="1" stroke-width="1" stroke-opacity="1" fill-opacity="1" d="M 606.0526275634766,331.5 l 138.31578826904297,0 a 2,2,0,0,1,2,2 l 0,77 a 2,2,0,0,1,-2,2 l -138.31578826904297,0 a 2,2,0,0,1,-2,-2 l 0,-77 a 2,2,0,0,1,2,-2 z" fill="#fdb05e" stroke="#3b4044"/><path opacity="1" stroke-width="1" stroke-opacity="1" fill-opacity="1" d="M 604.0526275634766,375.5 l 142.31578826904297,0 l 0,37 l-142.31578826904297 0 z" fill="#fffff7" stroke="#3b4044" class="class__section-bg"/><text dominant-baseline="hanging" text-anchor="middle" opacity="1" stroke-width="1" stroke-opacity="1" fill-opacity="1" x="675.210521697998" y="343.5" font-size="14" font-family="Source Code Pro, sans-serif" font-style="normal" font-weight="normal" font-variant="normal" fill="#3b4044" width="101.0526351928711" height="10" paint-order="stroke" style="stroke-linecap:butt; stroke-linejoin:miter;" stroke="none">&lt;&lt;external&gt;&gt;</text><text dominant-baseline="hanging" text-anchor="middle" opacity="1" stroke-width="1" stroke-opacity="1" fill-opacity="1" x="675.210521697998" y="357.5" font-size="14" font-family="Source Code Pro, sans-serif" font-style="normal" font-weight="bold" font-variant="normal" fill="#3b4044" width="50.52631759643555" height="10" paint-order="stroke" style="stroke-linecap:butt; stroke-linejoin:miter;" stroke="none">Askama</text><text dominant-baseline="hanging" text-anchor="middle" opacity="1" stroke-width="1" stroke-opacity="1" fill-opacity="1" x="675.210521697998" y="379.5" font-size="14" font-family="Source Code Pro, sans-serif" font-style="normal" font-weight="normal" font-variant="normal" fill="#3b4044" width="126.31578826904297" height="13" paint-order="stroke" style="stroke-linecap:butt; stroke-linejoin:miter;" stroke="none">Template engine</text><text dominant-baseline="hanging" text-anchor="middle" opacity="1" stroke-width="1" stroke-opacity="1" fill-opacity="1" x="612.0526275634766" y="404.5" font-size="14" font-family="Source Code Pro, sans-serif" font-style="normal" font-weight="normal" font-variant="normal" fill="#3b4044" width="0" height="0" paint-order="stroke" style="stroke-linecap:butt; stroke-linejoin:miter;" stroke="none"/><line opacity="1" stroke-width="1" stroke-opacity="1" fill-opacity="1" x1="-71.15789413452148" y1="3.5" x2="71.15789413452148" y2="3.5" stroke="#3b4044" class="class-entity__sep-line" transform="matrix(1,0,0,1,675.2105102539062,372)"/><line opacity="1" stroke-width="1" stroke-opacity="1" fill-opacity="1" x1="-71.15789413452148" y1="28.5" x2="71.15789413452148" y2="28.5" stroke="#3b4044" class="class-entity__sep-line" transform="matrix(1,0,0,1,675.2105102539062,372)"/></g><g opacity="1"><path opacity="1" stroke-width="1" stroke-opacity="1" fill-opacity="1" d="M 427.4210453033447 145.32878497037828L 210.05262756347656 235L 210.05262756347656 245L 210.05262756347656 255L 210.05262756347656 265" stroke="#3b4044" stroke-linecap="round" stroke-dasharray="null" fill="none" class="class__rel-line"/><path opacity="0.85" stroke-width="1" stroke-opacity="1" fill-opacity="1" d="M 138.4736785888672,238.5 l 143.15789794921875,0 l 0,15 l-143.15789794921875 0 z" fill="#fff" stroke="none" class="label-bg"/><text dominant-baseline="central" text-anchor="middle" opacity="1" stroke-width="1" stroke-opacity="1" fill-opacity="1" x="210.05262756347656" y="245" font-size="14" font-family="Source Code Pro, sans-serif" font-style="normal" font-weight="normal" font-variant="normal" fill="#3b4044" paint-order="stroke" style="stroke-linecap:butt; stroke-linejoin:miter;" stroke="none" class="class__rel-text">direct dependency</text><path opacity="1" stroke-width="1" stroke-opacity="1" fill-opacity="1" x="203.12442433320106" y="265" stroke="#3b4044" stroke-linecap="round" d="M 203.12442433320106 261L 210.05262756347656 265L 203.12442433320106 269" fill="none" transform="matrix(6.123233995736766e-17,1,-1,6.123233995736766e-17,475.05262756347656,54.94737243652341)"/><path opacity="1" stroke-width="1" stroke-opacity="1" fill-opacity="1" d="M 117.84210205078125 476.53034156538916L 106.84210205078125 489L 106.84210205078125 499L 106.84210205078125 509L 106.84210205078125 543" stroke="#3b4044" stroke-linecap="round" stroke-dasharray="null" fill="none" class="class__rel-line"/><path opacity="0.85" stroke-width="1" stroke-opacity="1" fill-opacity="1" d="M 43.684207916259766,492.5 l 126.31578826904297,0 l 0,15 l-126.31578826904297 0 z" fill="#fff" stroke="none" class="label-bg"/><text dominant-baseline="central" text-anchor="middle" opacity="1" stroke-width="1" stroke-opacity="1" fill-opacity="1" x="106.84210205078125" y="499" font-size="14" font-family="Source Code Pro, sans-serif" font-style="normal" font-weight="normal" font-variant="normal" fill="#3b4044" paint-order="stroke" style="stroke-linecap:butt; stroke-linejoin:miter;" stroke="none" class="class__rel-text">path dependency</text><path opacity="1" stroke-width="1" stroke-opacity="1" fill-opacity="1" x="99.91389882050575" y="543" stroke="#3b4044" stroke-linecap="round" d="M 99.91389882050575 539L 106.84210205078125 543L 99.91389882050575 547" fill="none" transform="matrix(6.123233995736766e-17,1,-1,6.123233995736766e-17,649.8421020507812,436.15789794921875)"/><path opacity="1" stroke-width="1" stroke-opacity="1" fill-opacity="1" d="M 302.2631530761719 476.53034156538916L 313.2631530761719 489L 313.2631530761719 499L 313.2631530761719 509L 313.2631530761719 519" stroke="#3b4044" stroke-linecap="round" stroke-dasharray="null" fill="none" class="class__rel-line"/><path opacity="0.85" stroke-width="1" stroke-opacity="1" fill-opacity="1" d="M 250.1052589416504,492.5 l 126.31578826904297,0 l 0,15 l-126.31578826904297 0 z" fill="#fff" stroke="none" class="label-bg"/><text dominant-baseline="central" text-anchor="middle" opacity="1" stroke-width="1" stroke-opacity="1" fill-opacity="1" x="313.2631530761719" y="499" font-size="14" font-family="Source Code Pro, sans-serif" font-style="normal" font-weight="normal" font-variant="normal" fill="#3b4044" paint-order="stroke" style="stroke-linecap:butt; stroke-linejoin:miter;" stroke="none" class="class__rel-text">path dependency</text><path opacity="1" stroke-width="1" stroke-opacity="1" fill-opacity="1" x="306.33494984589635" y="519" stroke="#3b4044" stroke-linecap="round" d="M 306.33494984589635 515L 313.2631530761719 519L 306.33494984589635 523" fill="none" transform="matrix(6.123233995736766e-17,1,-1,6.123233995736766e-17,832.2631530761719,205.73684692382807)"/><path opacity="1" stroke-width="1" stroke-opacity="1" fill-opacity="1" d="M 520.1471485215791 225L 521.3157844543457 235L 521.3157844543457 245L 521.3157844543457 255L 521.3157844543457 333.5" stroke="#3b4044" stroke-linecap="round" stroke-dasharray="null" fill="none" class="class__rel-line"/><path opacity="0.85" stroke-width="1" stroke-opacity="1" fill-opacity="1" d="M 487.6315727233887,240.5 l 67.36842346191406,0 l 0,11 l-67.36842346191406 0 z" fill="#fff" stroke="none" class="label-bg"/><text dominant-baseline="central" text-anchor="middle" opacity="1" stroke-width="1" stroke-opacity="1" fill-opacity="1" x="521.3157844543457" y="245" font-size="14" font-family="Source Code Pro, sans-serif" font-style="normal" font-weight="normal" font-variant="normal" fill="#3b4044" paint-order="stroke" style="stroke-linecap:butt; stroke-linejoin:miter;" stroke="none" class="class__rel-text">axum 0.7</text><path opacity="1" stroke-width="1" stroke-opacity="1" fill-opacity="1" x="514.3875812240702" y="333.5" stroke="#3b4044" stroke-linecap="round" d="M 514.3875812240702 329.5L 521.3157844543457 333.5L 514.3875812240702 337.5" fill="none" transform="matrix(6.123233995736766e-17,1,-1,6.123233995736766e-17,854.8157844543457,-187.8157844543457)"/><path opacity="1" stroke-width="1" stroke-opacity="1" fill-opacity="1" d="M 586.5789432525635 170.45369290440752L 675.210521697998 235L 675.210521697998 245L 675.210521697998 255L 675.210521697998 331.5" stroke="#3b4044" stroke-linecap="round" stroke-dasharray="null" fill="none" class="class__rel-line"/><path opacity="0.85" stroke-width="1" stroke-opacity="1" fill-opacity="1" d="M 628.8947334289551,240 l 92.63157653808594,0 l 0,12 l-92.63157653808594 0 z" fill="#fff" stroke="none" class="label-bg"/><text dominant-baseline="central" text-anchor="middle" opacity="1" stroke-width="1" stroke-opacity="1" fill-opacity="1" x="675.210521697998" y="245" font-size="14" font-family="Source Code Pro, sans-serif" font-style="normal" font-weight="normal" font-variant="normal" fill="#3b4044" paint-order="stroke" style="stroke-linecap:butt; stroke-linejoin:miter;" stroke="none" class="class__rel-text">askama 0.12</text><path opacity="1" stroke-width="1" stroke-opacity="1" fill-opacity="1" x="668.2823184677226" y="331.5" stroke="#3b4044" stroke-linecap="round" d="M 668.2823184677226 327.5L 675.210521697998 331.5L 668.2823184677226 335.5" fill="none" transform="matrix(6.123233995736766e-17,1,-1,6.123233995736766e-17,1006.710521697998,-343.71052169799805)"/><path opacity="1" stroke-width="1" stroke-opacity="1" fill-opacity="1" d="M 106.84210205078125 666L 106.84210205078125 747L 106.84210205078125 757L 106.84210205078125 767L 106.84210205078125 777.5" stroke="#3b4044" stroke-linecap="round" stroke-dasharray="null" fill="none" class="class__rel-line"/><path opacity="0.85" stroke-width="1" stroke-opacity="1" fill-opacity="1" d="M 35.263153076171875,750.5 l 143.15789794921875,0 l 0,15 l-143.15789794921875 0 z" fill="#fff" stroke="none" class="label-bg"/><text dominant-baseline="central" text-anchor="middle" opacity="1" stroke-width="1" stroke-opacity="1" fill-opacity="1" x="106.84210205078125" y="757" font-size="14" font-family="Source Code Pro, sans-serif" font-style="normal" font-weight="normal" font-variant="normal" fill="#3b4044" paint-order="stroke" style="stroke-linecap:butt; stroke-linejoin:miter;" stroke="none" class="class__rel-text">sqlx 0.8 postgres</text><path opacity="1" stroke-width="1" stroke-opacity="1" fill-opacity="1" x="99.91389882050575" y="777.5" stroke="#3b4044" stroke-linecap="round" d="M 99.91389882050575 773.5L 106.84210205078125 777.5L 99.91389882050575 781.5" fill="none" transform="matrix(6.123233995736766e-17,1,-1,6.123233995736766e-17,884.3421020507812,670.6578979492188)"/><path opacity="1" stroke-width="1" stroke-opacity="1" fill-opacity="1" d="M 313.2631530761719 690L 313.2631530761719 747L 313.2631530761719 757L 313.2631530761719 767L 313.2631530761719 777" stroke="#3b4044" stroke-linecap="round" stroke-dasharray="null" fill="none" class="class__rel-line"/><path opacity="0.85" stroke-width="1" stroke-opacity="1" fill-opacity="1" d="M 266.9473648071289,752 l 92.63157653808594,0 l 0,12 l-92.63157653808594 0 z" fill="#fff" stroke="none" class="label-bg"/><text dominant-baseline="central" text-anchor="middle" opacity="1" stroke-width="1" stroke-opacity="1" fill-opacity="1" x="313.2631530761719" y="757" font-size="14" font-family="Source Code Pro, sans-serif" font-style="normal" font-weight="normal" font-variant="normal" fill="#3b4044" paint-order="stroke" style="stroke-linecap:butt; stroke-linejoin:miter;" stroke="none" class="class__rel-text">lettre 0.11</text><path opacity="1" stroke-width="1" stroke-opacity="1" fill-opacity="1" x="306.33494984589635" y="777" stroke="#3b4044" stroke-linecap="round" d="M 306.33494984589635 773L 313.2631530761719 777L 306.33494984589635 781" fill="none" transform="matrix(6.123233995736766e-17,1,-1,6.123233995736766e-17,1090.2631530761719,463.73684692382807)"/></g><g opacity="1" class="class__note"><path opacity="1" stroke-width="1" stroke-opacity="1" fill-opacity="1" d="M 312.2631530761719,265 l 272.63157653808594,0 l 0,47 l-272.63157653808594 0 z" fill="#F8EA75" stroke="#3b4044" rx="0" ry="0" class="note__bg"/><text dominant-baseline="central" text-anchor="left" opacity="1" stroke-width="1" stroke-opacity="1" fill-opacity="1" x="322.2631530761719" y="288.5" font-size="14" font-family="Source Code Pro, sans-serif" font-style="normal" font-weight="normal" font-variant="normal" fill="#3b4044" width="272.63157653808594" paint-order="stroke" style="stroke-linecap:butt; stroke-linejoin:miter;" stroke="none"><tspan x="322.2631530761719" dy="0em">Hexagonal Core</tspan><tspan x="322.2631530761719" dy="1em">Depends on adapters via traits</tspan></text></g><g opacity="1" class="class__note"><path opacity="1" stroke-width="1" stroke-opacity="1" fill-opacity="1" d="M 271.10525703430176,0 l 146.31578826904297,0 l 0,47 l-146.31578826904297 0 z" fill="#F8EA75" stroke="#3b4044" rx="0" ry="0" class="note__bg"/><text dominant-baseline="central" text-anchor="left" opacity="1" stroke-width="1" stroke-opacity="1" fill-opacity="1" x="281.10525703430176" y="23.5" font-size="14" font-family="Source Code Pro, sans-serif" font-style="normal" font-weight="normal" font-variant="normal" fill="#3b4044" width="146.31578826904297" paint-order="stroke" style="stroke-linecap:butt; stroke-linejoin:miter;" stroke="none"><tspan x="281.10525703430176" dy="0em">Entry Point</tspan><tspan x="281.10525703430176" dy="1em">Axum web server</tspan></text></g><g opacity="1" class="class__note"><path opacity="1" stroke-width="1" stroke-opacity="1" fill-opacity="1" d="M 0,723 l 213.6842041015625,0 l 0,47 l-213.6842041015625 0 z" fill="#F8EA75" stroke="#3b4044" rx="0" ry="0" class="note__bg"/><text dominant-baseline="central" text-anchor="left" opacity="1" stroke-width="1" stroke-opacity="1" fill-opacity="1" x="10" y="746.5" font-size="14" font-family="Source Code Pro, sans-serif" font-style="normal" font-weight="normal" font-variant="normal" fill="#3b4044" width="213.6842041015625" paint-order="stroke" style="stroke-linecap:butt; stroke-linejoin:miter;" stroke="none"><tspan x="10" dy="0em">PostgreSQL Adapter</tspan><tspan x="10" dy="1em">Generic Repository impl</tspan></text></g><text dominant-baseline="text-after-edge" text-anchor="middle" opacity="1" stroke-width="1" stroke-opacity="1" fill-opacity="1" x="639.6052560806274" y="-10" font-size="14" font-family="Source Code Pro, sans-serif" font-style="normal" font-weight="bold" font-variant="normal" fill="#3b4044" paint-order="stroke" style="stroke-linecap:butt; stroke-linejoin:miter;" stroke="none" class="class__title">Level 4 - Module Structure</text></g></svg>